<?xml version="1.0" encoding="utf-8"?>
<!-- Generator: Adobe Illustrator 27.5.0, SVG Export Plug-In . SVG Version: 6.00 Build 0)  -->
<svg version="1.1" id="PRINT" xmlns="http://www.w3.org/2000/svg" xmlns:xlink="http://www.w3.org/1999/xlink" x="0px" y="0px"
	 viewBox="0 0 595.276 841.89" style="enable-background:new 0 0 595.276 841.89;" xml:space="preserve">
<g>
	<g>
		<rect x="-14.173" y="-14.173" style="fill:#F8F5F0;" width="623.622" height="870.236"/>
		<path style="fill:#B7C1B6;" d="M-14.173-14.173v403.336c1.519,0.331,3.049,0.631,4.603,0.862
			c42.75-34.406,73.117-83.884,84.439-137.58c10.972-52.033,7.579-113.526,47.467-148.694c9.114-8.035,20.036-14.073,27.973-23.273
			c10.838-12.562,14.832-29.423,21.466-44.63c8.313-19.055,21.8-37.305,38.674-50.022H-14.173z"/>
		<path style="fill:#B7C1B6;" d="M609.449,856.063V435.361c-56.376,1.597-58.779,93.196-80.196,129.754
			c-15.007,25.616-40.834,44.076-53.301,71.02c-15.527,33.56-7.776,74.826-25.326,107.373
			c-19.556,36.268-63.661,50.45-94.774,77.464c-11.498,9.983-21.286,21.913-28.914,35.091H609.449z"/>
		<path style="fill:#B7C1B6;" d="M524.598,522.555c-2.335-2.21-5.835-2.731-9.032-2.396c-4.868,0.51-9.53,2.803-12.907,6.347
			c0,0-12.242,20.37-11.713,28.559c0.067,1.038,0.207,2.118,0.791,2.978c0.424,0.624,1.049,1.08,1.688,1.482
			c7.405,4.653,17.734,2.771,24.265-3.046c6.531-5.817,9.607-14.775,9.945-23.515C527.779,529.237,527.307,525.119,524.598,522.555z
			"/>
		<path style="fill:#FBD8CE;" d="M135.854,806.272c-23.797-15.244-52.753-20.628-77.01-35.128
			c-5.809-3.473-11.637-7.867-13.842-14.266c-2.686-7.794,0.682-16.203,1.762-24.375c2.97-22.464-11.029-41.175-17.209-61.669
			c-6.775-22.468-3.549-48.469-16.268-69.021c-6.978-11.275-16.63-18.794-27.461-22.686v276.936h182.186
			C166.917,836.893,152.941,817.218,135.854,806.272z"/>
		<path style="fill:#FBD8CE;" d="M124.819,775.755c4.245,0.345,8.794,0.012,12.276-2.441c4.237-2.984,5.996-8.634,5.434-13.786
			c-0.562-5.152-3.101-9.881-6.029-14.156c-9.883-14.429-27.623-26.186-45.325-17.877c-19.07,8.951-7.975,27.183,4.319,36.362
			C104.03,770.23,114.106,774.885,124.819,775.755z"/>
		<path style="fill:#FBD8CE;" d="M444.604,34.033c38.187,8.642,80.456,17.534,103.889,48.9
			c17.12,22.916,20.291,53.173,32.366,79.105c7.169,15.396,17.35,29.004,28.589,41.817V-14.173H353.988
			C368.386,12.276,420.567,28.593,444.604,34.033z"/>
		<path style="fill:#FBD8CE;" d="M484.883,93.557c2.011,5.569,7.178,9.363,12.433,12.093c10.078,5.236,21.729,7.818,32.95,6.058
			c3.799-0.596,7.877-1.938,9.86-5.233c1.605-2.667,1.447-6.117,0.273-8.999c-3.829-9.401-18.171-22.503-28.592-24.42
			C499.471,70.787,479.006,77.281,484.883,93.557z"/>
	</g>
	<g>
		<defs>
			<rect id="SVGID_1_" x="-14.173" y="-14.173" width="623.622" height="870.236"/>
		</defs>
		<clipPath id="SVGID_00000127030048329209695500000011461223842118446746_">
			<use xlink:href="#SVGID_1_"  style="overflow:visible;"/>
		</clipPath>
		<g style="clip-path:url(#SVGID_00000127030048329209695500000011461223842118446746_);">
			<g>
				<path style="fill:#E89382;" d="M53.816,197.531c11.874,4.669,20.281,3.714,23.232-9.159c1.527-6.661,4.75-13.833-2.122-18.754
					c-4.477-3.206-16.121-7.058-21.406-5.893c-7.88,1.738-6.483,10.649-6.582,16.625C46.86,185.069,46.058,197.286,53.816,197.531z"
					/>
				<path style="fill:#E89382;" d="M97.964,199.326c-6.113-0.222-9.763,1.547-9.049,7.839c0.369,3.255,0.053,7.012,3.943,8.144
					c2.535,0.737,8.414,0.627,10.619-0.741c3.287-2.04,1.238-5.848,0.332-8.566C103.093,203.855,101.512,198.202,97.964,199.326z"/>
				<path style="fill:#305569;" d="M19.012,191.953c-6.113-0.222-9.763,1.547-9.049,7.839c0.369,3.255,0.053,7.012,3.944,8.144
					c2.535,0.738,8.414,0.627,10.619-0.741c3.287-2.04,1.238-5.848,0.332-8.566C24.141,196.482,22.559,190.83,19.012,191.953z"/>
				<path style="fill:#E89382;" d="M106.492,146.932c-8.638-0.314-13.795,2.186-12.787,11.076c0.522,4.6,0.074,9.908,5.572,11.507
					c3.582,1.042,11.889,0.886,15.004-1.047c4.645-2.882,1.749-8.263,0.469-12.104C113.74,153.332,111.505,145.344,106.492,146.932z
					"/>
			</g>
			<path style="fill:#E89382;" d="M519.756,14.648c-14.342,3.526-35.601,16.752-32.097,34.404c1.49,7.507,9.33,15.343,14.372,20.764
				c5.666,6.092,12.019,10.26,19.266,14.115c15.399,8.192,37.084,2.304,42.217-14.809c5.461-18.205-2.444-34.514-15.987-46.465
				C539.396,15.48,530.597,16.187,519.756,14.648z"/>
			<path style="fill:#E89382;" d="M44.972,259.142c-7.991-0.663-19.437,5.053-24.608,11.309c-7.096,8.585-4.365,18.66-1.425,28.031
				c4.482,14.284,7.474,28.18,19.819,38.318c10.722,8.805,22.457,5.355,24.688-8.091c1.285-7.743-1.863-14.38-1.233-22.36
				c0.484-6.139,2.835-12.642,2.638-18.944C64.54,277.495,56.51,261.059,44.972,259.142z"/>
			<path style="fill:#F8F5F0;" d="M103.525,24.091c-9.679-0.137-19.369-1.384-29.031,0.295c-0.422,0.073-0.861,0.162-1.28,0.122
				c-1.474-0.142-2.124-1.274-1.231-2.469c1.152-1.543,2.445-3.027,3.891-4.294c3.24-2.839,6.611-5.528,9.928-8.278
				c5.549-2.673,10.914-5.874,16.692-7.892c8.225-2.872,16.841-4.027,25.578-2.385c4.851,0.911,9.883,1.181,14.319,3.719
				c0.63,0.36,1.293,0.662,2.004,1.024c5.674-6.39,10.239-13.299,13.808-20.873c0.83,0.253,1.66,0.505,2.49,0.758
				c-0.437,1.223-0.715,2.533-1.334,3.655C153.733-2.334,146.852,6.931,138.342,14.9c-4.181,3.915-8.577,7.607-12.97,11.287
				c-2.976,2.492-6.116,4.788-9.182,7.172c-1.181,0.72-2.362,1.44-3.051,1.86c-0.02,6.041,0.2,11.56-0.125,17.048
				c-0.298,5.029-2.5,9.563-4.663,14.068c-1.588,3.307-2.983,6.714-4.307,10.137c-3.439,8.89-6.819,17.803-10.162,26.729
				c-1.026,2.739-1.794,5.573-2.802,8.32c-0.659,1.797-1.207,4.287-3.547,4.08c-2.383-0.211-2.87-2.76-3.159-4.74
				c-0.828-5.674-1.633-11.363-1.053-17.139c0.335-3.336,0.608-6.683,0.765-10.032c0.411-8.772,3.255-16.744,7.816-24.158
				c2.719-4.42,5.511-8.794,8.255-13.199c0.215-0.346,0.313-0.764,0.779-1.942c-7.279,3.855-13.178,8.487-19.429,12.528
				c-6.362,4.112-12.531,8.542-18.601,13.079c-6.061,4.531-11.316,9.971-16.608,15.426c2.116,1.767,4.068,3.27,5.87,4.935
				c2.119,1.958,3.373,4.448,4.135,7.24c1.877,6.876,2.336,13.885,1.903,20.947c-0.377,6.153-0.995,12.292-1.55,18.433
				c-0.213,2.358-2.278,3.313-4.202,1.899c-0.75-0.551-1.349-1.41-1.805-2.245c-4.622-8.476-8.661-17.215-11.385-26.499
				c-0.635-2.164-0.834-4.458-1.195-6.699c-0.337-2.091-0.623-4.191-0.932-6.287c-0.239-0.039-0.478-0.079-0.716-0.118
				c-1.52,2.445-2.917,4.978-4.593,7.31c-1.619,2.254-2.06,4.476-1.583,7.263c0.948,5.527-0.267,10.994-1.209,16.437
				c-0.479,2.769-0.733,5.596-1.45,8.3c-2.244,8.459-7.576,15.004-13.703,20.908c-3.426,3.301-7.253,6.186-10.91,9.245
				c-0.413,0.345-0.863,0.673-1.348,0.899c-1.614,0.751-2.736,0.107-2.948-1.704c-0.074-0.638-0.052-1.306,0.042-1.943
				c0.972-6.642,1.936-13.283,4.233-19.646c2.093-5.797,4.094-11.626,6.152-17.436c2.549-7.198,6.636-13.348,12.652-18.1
				c1.236-0.976,2.761-1.732,4.274-2.167c1.348-0.387,2.141-0.859,2.098-2.308c-0.202-0.107-0.417-0.319-0.543-0.275
				c-6.441,2.218-13.096,2.774-19.853,2.652c-4.221-0.076-8.443-0.049-12.665-0.032c-0.965,0.004-2.195,0.358-2.413-0.897
				c-0.104-0.601,0.589-1.612,1.2-2.024c6.569-4.427,13.257-8.577,21.098-10.549c6.069-1.526,11.806-0.813,17.458,1.564
				c0.484,0.204,0.962,0.421,1.684,0.737c1.12-1.387,2.253-2.662,3.244-4.041c2.657-3.699,5.585-7.131,9.115-10.045
				c1.071-0.884,1.9-2.061,2.839-3.104c0.181-0.186,0.364-0.371,0.546-0.557c-0.305-0.059-0.61-0.118-0.915-0.177
				c-12.383,2.607-24.31,0.07-36.168-3.216c-5.318-1.474-10.558-3.289-16.142-3.557c-0.429-0.021-0.936-0.002-1.262-0.218
				c-0.488-0.324-1.032-0.783-1.191-1.297c-0.092-0.299,0.45-0.909,0.838-1.208c0.414-0.318,0.979-0.445,1.485-0.637
				c6.877-2.609,13.689-5.409,20.655-7.754c4.689-1.579,9.533-3.005,14.418-3.616c6.336-0.792,12.441,0.491,17.876,4.296
				c3.624,2.537,7.518,4.702,9.672,8.946c9.565-6.619,18.83-13.031,28.094-19.442c-0.075-0.201-0.15-0.403-0.226-0.604
				c-1.647,0.236-3.288,0.61-4.941,0.677c-2.9,0.119-5.836,0.31-8.708,0.006c-6.155-0.652-12.127-2.103-17.844-4.612
				c-2.765-1.214-5.735-1.959-8.605-2.935c-0.61-0.208-1.263-0.402-1.772-0.773c-1.038-0.755-0.981-1.956,0.059-2.699
				c0.26-0.185,0.571-0.321,0.879-0.414c8.077-2.443,16.048-5.418,24.613-5.653c6.203-0.17,12.321,0.22,17.973,3.347
				c3.476,1.923,7.131,3.52,11.133,5.472c2.145-1.554,4.822-3.203,7.127-5.267c1.471-1.317,2.849-2.558,4.748-3.183
				c0.473-0.156,0.823-0.682,1.23-1.038c4.934-3.742,9.889-7.458,14.786-11.247c0.899-0.695,1.567-1.689,2.34-2.547
				c0.255-0.176,0.512-0.35,0.768-0.526c0.112-0.152,0.225-0.303,0.339-0.454c-0.144,0.094-0.287,0.188-0.431,0.282
				c-0.278,0.132-0.555,0.263-0.833,0.395c-0.521,0.107-1.072,0.14-1.56,0.333c-6.958,2.751-13.999,5.129-21.596,5.3
				C105.621,23.521,104.575,23.884,103.525,24.091z M101.429,44.771c0.884-0.47,1.587-1.055,1.611-2.856
				c-0.993,0.913-1.552,1.426-2.11,1.94C101.096,44.16,101.263,44.466,101.429,44.771z"/>
			<g>
				<path style="fill:#E7AE5E;" d="M34.177,59.496c-0.124,4.695,1.88,14.195,8.251,13.201c5.264-0.821,6.311-8.135,5.253-12.34
					c-0.827-3.285-3.756-8.001-7.739-7.14C37.743,53.693,35.195,56.96,34.177,59.496z"/>
				<path style="fill:#E7AE5E;" d="M29.146,31.951c-0.492,12.444,14.145,7.467,9.604-0.784c-1.457-2.648-3.372-4.639-6.379-3.409
					c-1.986,0.812-3.615,2.883-3.363,4.971"/>
				<path style="fill:#E7AE5E;" d="M56.079,34.837c1.65,14.361,20.007,5.644,12.165-3.282
					C63.844,26.546,58.777,30.063,56.079,34.837z"/>
				<path style="fill:#E7AE5E;" d="M53.176,9.758c3.321,2.453,7.228,4.019,10.319,0.297c-1.174-2.636-3.799-6.14-7.142-5.773
					c-2.113,0.232-5.337,3.065-3.744,5.054"/>
				<path style="fill:#E7AE5E;" d="M10.1,43.317c-2.102,5.257,4.06,13.61,6.625,5.476C18.353,43.629,13.977,37.7,10.1,43.317"/>
				<path style="fill:#E7AE5E;" d="M65.418,59.522c-2.329,3.222-1.708,6.246,1.243,9.077c2.315,2.22,3.863,2.456,5.715-0.263
					C75.168,64.236,68.288,54.382,65.418,59.522z"/>
				<path style="fill:#E7AE5E;" d="M32.744,0.511c0.394,1.781,0.943,6.56,3.667,6.064c1.98-0.361,1.903-2.6,1.794-4.023
					c-0.115-1.497-0.653-4.628-2.579-4.991c-1.283-0.242-3.142,1.554-2.565,2.905"/>
				<path style="fill:#E7AE5E;" d="M1.372,12.358c0.274,2.998,3.167,8.619,7.004,7.273c3.032-1.063,2.185-4.127,0.747-6.122
					C7.179,10.813,3.514,9.516,1.372,12.358z"/>
				<path style="fill:#E7AE5E;" d="M9.435-10.941c0.579,2.215,2.615,6.54,5.428,6.368C17-4.704,18.508-7.027,17.999-9.086
					C17.247-12.131,11.671-14.307,9.435-10.941z"/>
			</g>
			<path style="fill:#6A839A;" d="M502.634,116.59c-0.839,3.849-1.616,7.717-1.263,11.68c0.449,5.051,2.502,9.295,6.607,12.432
				c1.589,1.214,3.405,1.802,5.354,2.072c4.816,0.665,9.398-0.297,13.883-1.967c4.297-1.601,8.275-3.835,11.986-6.473
				c3.378-2.402,6.521-5.135,9.768-7.722c0.266-0.212,0.533-0.423,0.799-0.635c0.354,0.588,0.708,1.175,1.063,1.762
				c-0.511,0.347-1.043,0.667-1.53,1.044c-2.968,2.299-5.867,4.692-8.906,6.892c-2.211,1.601-4.538,3.067-6.925,4.393
				c-4.629,2.57-9.577,4.267-14.885,4.708c-3.323,0.276-6.578,0.052-9.705-1.379c-3.514-1.608-5.821-4.332-7.501-7.659
				c-2.198-4.355-2.329-8.99-1.611-13.706c0.3-1.972,0.613-3.941,0.92-5.912c0.553-3.369,1.4-6.721,1.597-10.111
				c0.358-6.169-1.515-11.614-6.484-15.63c-2.389-1.932-4.914-3.674-7.711-5.026c-3.993-1.929-8.15-3.249-12.536-3.856
				c-0.651-0.09-1.309-0.136-2.04-0.211c-0.21,4.023-1.228,7.617-2.924,11.024c-1.671,2.591-3.455,5.089-5.941,6.983
				c-3.12,2.376-6.575,3.549-10.538,2.904c-7.794-1.268-8.486-8.604-6.153-12.848c1.989-3.618,4.958-6.198,8.816-7.68
				c1.909-0.733,3.88-1.305,5.823-1.951c1.972-0.233,3.94-0.509,5.917-0.681c0.991-0.086,1.999,0.018,3.062,0.037
				c-0.05-0.909-0.021-1.658-0.142-2.381c-1.272-7.615-4.71-13.967-10.903-18.733c-3.49-2.685-7.21-5.009-11.098-7.047
				c-2.564-1.344-5.262-2.433-7.9-3.636c-1.888-0.781-3.766-1.586-5.664-2.34c-5.811-2.307-11.127-5.418-15.795-9.606
				c-2.127-1.908-3.946-4.07-5.495-6.467c-0.246-0.381-0.529-0.739-0.794-1.108c-0.645-1.638-1.329-3.262-1.93-4.915
				c-1.465-4.029-1.339-7.945,0.943-11.68c0.148-0.243,0.279-0.498,0.4-0.756c0.046-0.098,0.042-0.219,0.055-0.299
				c-2.546-3.311-5.11-6.58-7.601-9.903c-2.722-3.631-5.977-6.731-9.488-9.56c-2.795-2.251-5.714-4.346-8.56-6.535
				c-6.136-4.719-12.914-8.37-19.775-11.876c-4.245-2.169-8.798-3.101-13.55-3.124c-0.158-0.001-0.317-0.074-0.475-0.114
				c0.979-0.59,1.958-1.181,2.937-1.771c0.153,0.06,0.303,0.165,0.459,0.174c5.007,0.295,9.581,1.956,13.932,4.357
				c5.043,2.783,10.228,5.33,14.869,8.788c4.295,3.201,8.624,6.362,12.801,9.711c3.657,2.932,6.818,6.383,9.598,10.177
				c1.981,2.704,4.049,5.345,6.127,8.078c1.233-1.101,2.306-2.108,3.43-3.055c3.314-2.79,7.092-4.396,11.481-4.038
				c3.255,0.266,6.268,1.265,8.47,3.899c1.21,1.449,1.324,3.327,0.311,4.89c-2.067,3.192-4.73,5.632-8.668,6.065
				c-4.516,0.496-8.735-0.503-12.537-3.061c-0.66-0.444-1.294-0.927-1.944-1.387c-0.037-0.026-0.106-0.006-0.286-0.01
				c-1.212,1.37-1.771,3.068-1.871,4.922c-0.171,3.173,0.838,6.092,2.215,8.866c0.781,1.574,1.87,2.995,2.82,4.485
				c1.332,1.471,2.544,3.079,4.023,4.383c2.953,2.604,6.231,4.79,9.77,6.521c2.026,0.991,4.171,1.736,6.263,2.591
				c0.619,0.281,1.223,0.606,1.86,0.837c7.62,2.765,14.611,6.701,21.145,11.456c3.013,2.193,5.714,4.763,7.771,7.891
				c2.38,3.619,3.809,7.639,4.465,11.922c0.173,1.127,0.273,2.264,0.423,3.539c1.001,0.183,1.993,0.396,2.995,0.543
				c5.492,0.807,10.597,2.652,15.345,5.538c2.547,1.548,4.896,3.299,7.02,5.412c3.724,3.706,5.133,8.27,5.244,13.338
				c0.075,3.437-0.439,6.824-1.212,10.172C502.876,115.009,502.772,115.804,502.634,116.59z M463.784,81.489
				c-3.673,0.838-7.237,1.999-10.29,4.268c-2.391,1.776-4.169,4.061-4.577,7.144c-0.447,3.382,0.644,6.319,4.618,7.18
				c2.934,0.636,5.833,0.241,8.402-1.344c3.316-2.045,5.828-4.872,7.41-8.473c1.477-2.873,2.166-5.92,2.203-9.258
				C468.821,80.811,466.287,80.844,463.784,81.489z M416.111,9.954c3.024,2.943,6.587,4.095,10.46,4.564
				c2.588,0.313,4.849-0.622,6.944-1.92c1.296-0.802,2.383-1.948,3.036-3.397c0.635-1.407,0.475-2.383-0.729-3.333
				c-0.791-0.624-1.677-1.21-2.615-1.552c-5.555-2.022-10.396-0.488-14.736,3.172C417.619,8.207,416.918,9.102,416.111,9.954z"/>
			<g>
				<path style="fill:#E89382;" d="M584.081,291.527c-0.794-0.987-1.68-1.837-2.307-3.03c-1.608-3.062-0.244-8.077,4.84-9.224
					c0.197-0.045,0.445-0.129,0.6-0.052c1.711,0.841,3.933,0.343,5.329,2.052c0.225,0.276,0.721,0.33,1.091,0.487
					c0.746,2.026,1.476,4.04,1.331,6.273c-0.121,1.87-1.946,4.031-3.697,4.722c-1.564,0.617-3.044,0.689-4.549,0.15
					C585.793,292.573,584.957,291.995,584.081,291.527z"/>
				<path style="fill:#E89382;" d="M577.854,268.896c-0.725,3.474-2.67,5.41-5.331,6.621c-1.604,0.73-3.302,0.199-4.713-0.619
					c-2.577-1.494-4.454-3.577-4.659-6.785c-0.06-0.942-0.505-1.872-0.494-2.805c0.035-2.892,2.081-4.478,4.541-4.958
					c4.037-0.788,8.548,1.51,10.384,5.217C578.19,266.794,578.074,268.08,577.854,268.896z"/>
				<path style="fill:#E89382;" d="M594.749,262.127c-0.723,2.895-4.209,5.284-6.918,4.913c-0.196-0.027-0.441-0.067-0.566-0.196
					c-1.62-1.669-3.686-2.987-3.767-5.756c-0.033-1.133,0.339-1.956,1.087-2.475c1.33-0.923,2.791-1.678,4.256-2.38
					c1.395-0.669,2.71-0.314,3.728,0.814C593.914,258.538,594.827,260.241,594.749,262.127z"/>
			</g>
			<g>
				<path style="fill:#305569;" d="M465.386,13.944c-2.846,4.805-6.708,8.808-10.272,13.047c-0.69,0.82-1.222,1.771-1.845,2.649
					c-1.402,1.974-3.702,2.424-5.65,1.118c-1.385-0.929-1.593-4.288-0.312-5.917c0.87-1.105,1.82-2.147,2.752-3.203
					c2.797-3.169,5.596-6.336,8.407-9.493c0.802-0.9,1.646-1.763,2.471-2.642c0.73-0.128,1.455-0.312,2.191-0.373
					c1.829-0.152,2.838,0.825,2.697,2.636C465.768,12.499,465.538,13.218,465.386,13.944z"/>
				<path style="fill:#305569;" d="M495.091,31.454c-2.923,0.011-4.061-1.133-3.662-3.836c0.188-1.268,0.596-2.692,1.385-3.648
					c2.256-2.732,4.501-5.507,7.436-7.601c2.437-1.738,4.98-1.037,5.309,1.618c0.102,0.82-0.158,1.866-0.631,2.545
					c-2.264,3.244-4.637,6.413-7.017,9.575C497.185,31.072,496.222,31.721,495.091,31.454z"/>
				<path style="fill:#305569;" d="M475.378,6.916c-2.654,0.057-4.406-1.231-4.777-3.208c-0.12-0.641,0.009-1.577,0.414-2.029
					c2.596-2.899,5.285-5.715,7.986-8.519c0.445-0.462,1.105-0.714,1.651-1.085c1.131-0.771,2.18-0.518,3.214,0.206
					c1.045,0.731,1.135,1.807,0.959,2.898c-0.359,2.215-1.79,3.89-3.09,5.585c-1.255,1.636-2.622,3.204-4.082,4.659
					C476.892,6.181,475.825,6.632,475.378,6.916z"/>
				<path style="fill:#305569;" d="M492.831,6.938c-2.726-0.058-4.533-2.69-3.744-5.101c0.43-1.314,1.096-2.661,2.005-3.683
					c1.368-1.538,2.89-3.059,4.636-4.101c1.254-0.748,3.001-1.022,4.494-0.932c1.82,0.11,2.8,2.638,1.747,4.331
					c-0.991,1.594-1.889,3.258-3.578,4.394c-1.045,0.703-1.697,2-2.499,3.05C495,6.064,493.929,6.896,492.831,6.938z"/>
				<path style="fill:#305569;" d="M476.831,29.445c-0.388,0.126-0.788,0.225-1.164,0.382c-1.731,0.724-3.623,0.454-4.766-0.701
					c-0.755-0.762-0.782-3.373,0.021-4.694c0.423-0.696,0.978-1.312,1.474-1.965c0.473-0.289,1.11-0.468,1.391-0.886
					c1.734-2.582,4.36-3.985,6.856-5.494c2.881,1.421,3.464,2.328,2.74,4.45c-0.288,0.844-0.712,1.688-1.258,2.389
					C480.408,25.135,478.603,27.277,476.831,29.445z"/>
			</g>
			<g>
				<g>
					<g>
						<path style="fill:#F8F5F0;" d="M553.328-40.344c4.484,10.481,5.344,21.713,3.916,32.951
							c-1.456,11.456-5.212,22.717-11.228,32.588c-3.978,6.528-8.721,12.545-13.001,18.871c0.225,0,0.45,0,0.676,0
							c-2.55-4.16-5.086-8.327-7.629-12.491c-0.193-0.316-0.606-0.151-0.646,0.175c-0.707,5.848,0.389,11.748,3.157,16.948
							c0.018-0.14,0.036-0.28,0.054-0.419c-3.794,4.589-7.266,9.437-11.033,14.051c-1.427,1.748-2.93,3.414-4.49,5.041
							c-1.052,1.097-2.556,2.487-2.846,4.056c0.366,0.05,0.732,0.099,1.098,0.149c0.83-7.473-0.851-14.822-2.219-22.124
							c-0.7-3.738-1.376-7.534-1.421-11.347c-0.045-3.841,0.501-7.668,1.313-11.414c-0.222,0.169-0.444,0.338-0.667,0.508
							c3.449-0.225,6.742-1.168,9.782-2.815c0.6-0.325,0.331-1.308-0.349-1.289c-3.218,0.093-6.428-0.03-9.629-0.37
							c0.222,0.292,0.445,0.583,0.667,0.875c2.268-11.235,8.733-21.468,16.259-29.941c6.588-7.416,14.779-13.202,21.3-20.675
							c3.396-3.892,6.345-8.266,7.686-13.304c0.186-0.699-0.839-0.966-1.073-0.296c-3.303,9.449-10.703,16.201-17.962,22.707
							c-3.677,3.296-7.348,6.596-10.65,10.277c-3.761,4.194-7.154,8.747-10.005,13.608c-3.142,5.358-5.656,11.149-6.889,17.255
							c-0.096,0.475,0.201,0.826,0.667,0.875c3.201,0.34,6.411,0.463,9.629,0.37c-0.116-0.429-0.233-0.859-0.349-1.289
							c-2.822,1.529-5.881,2.417-9.084,2.626c-0.292,0.019-0.6,0.2-0.667,0.508c-0.79,3.643-1.342,7.366-1.349,11.101
							c-0.007,3.688,0.601,7.371,1.271,10.988c1.417,7.649,3.399,15.324,2.619,23.165c-0.062,0.622,0.991,0.77,1.098,0.149
							c0.277-1.604,1.985-3.032,3.034-4.179c1.574-1.72,2.872-3.655,4.348-5.46c3.567-4.362,6.816-8.971,10.397-13.318
							c0.102-0.124,0.132-0.273,0.054-0.419c-2.722-5.094-3.789-10.87-3.061-16.599c-0.215,0.058-0.43,0.116-0.646,0.175
							c2.518,4.179,5.041,8.354,7.552,12.536c0.159,0.265,0.511,0.239,0.676,0c4.03-5.854,8.444-11.44,12.268-17.436
							c3.16-4.955,5.76-10.202,7.777-15.722c3.998-10.942,6.13-22.911,5.034-34.562c-0.564-5.993-1.922-12.115-5.012-17.335
							C553.59-40.878,553.206-40.63,553.328-40.344L553.328-40.344z"/>
					</g>
				</g>
				<g>
					<g>
						<path style="fill:#F8F5F0;" d="M512.649,61.266c3.616-15.977,11.057-30.732,18.949-44.968
							c7.883-14.22,15.806-28.673,20.208-44.42c2.416-8.645,3.833-17.812,3.096-26.799c-0.085-1.04-1.693-1.067-1.642,0
							c0.387,8.19-0.455,16.235-2.484,24.181c-2.023,7.922-5.002,15.582-8.401,23.007c-6.733,14.71-15.003,28.666-21.597,43.445
							c-3.658,8.197-6.642,16.669-8.284,25.511C512.474,61.324,512.626,61.369,512.649,61.266L512.649,61.266z"/>
					</g>
				</g>
				<g>
					<g>
						<path style="fill:#F8F5F0;" d="M542.707,26.343c-3.794-4.178-7.009-8.904-9.153-14.138c-0.329-0.803-1.491-0.328-1.106,0.466
							c2.509,5.173,5.857,9.937,10.122,13.809C542.662,26.565,542.791,26.436,542.707,26.343L542.707,26.343z"/>
					</g>
				</g>
				<g>
					<g>
						<path style="fill:#F8F5F0;" d="M532.654,11.914c-3.465,0.597-6.814,1.832-10.243,2.619c-1.718,0.395-3.45,0.73-5.182,1.053
							c-1.557,0.29-3.452,0.293-4.793,1.209c-0.206,0.14-0.158,0.417,0.066,0.504c1.563,0.602,3.545,0.048,5.144-0.2
							c1.743-0.27,3.47-0.633,5.186-1.04c3.422-0.811,7.049-1.677,10.114-3.453C533.337,12.378,533.06,11.844,532.654,11.914
							L532.654,11.914z"/>
					</g>
				</g>
				<g>
					<g>
						<path style="fill:#F8F5F0;" d="M550.62,4.933c-2.391-4.611-4.538-9.492-5.804-14.541c-0.086-0.344-0.472-0.553-0.809-0.459
							c-3.073,0.85-6.131,1.764-9.185,2.68c-1.451,0.435-2.904,0.868-4.35,1.319c-1.462,0.457-3.029,0.86-4.314,1.721
							c-0.226,0.152-0.148,0.52,0.142,0.523c1.47,0.017,2.907-0.454,4.309-0.848c1.535-0.431,3.063-0.89,4.592-1.342
							c3.058-0.905,6.118-1.814,9.156-2.785c-0.27-0.153-0.539-0.306-0.809-0.459c1.577,5.137,4.309,9.631,6.839,14.328
							C550.47,5.223,550.7,5.087,550.62,4.933L550.62,4.933z"/>
					</g>
				</g>
			</g>
			<g>
				<path style="fill:#5D9FB2;" d="M590.834,19.76c2.297,5.067,14.631,13.213,17.767,4.44c2.057-5.755-10.352-14.647-15.594-12.234
					C590.287,13.218,589.597,17.032,590.834,19.76z"/>
				<path style="fill:#5D9FB2;" d="M575.312,38.521c13.882,8.029,12.447-17.207,1.699-18.009c-4.159-0.309-7.833,3.701-7.963,7.869
					C568.919,32.552,571.7,36.432,575.312,38.521z"/>
				<path style="fill:#5D9FB2;" d="M593.502,47.168c2.816,1.084,4.479-3.547,1.901-4.673c-1.228-0.536-2.834,0.121-3.338,1.362
					C591.561,45.098,592.252,46.687,593.502,47.168z"/>
				<path style="fill:#5D9FB2;" d="M599.047,78.568c2.046,0.254,5.79-0.773,6.697-2.831c0.587-1.332,0.061-2.882-0.605-4.176
					c-1.921-3.736-4.406-5.837-8.151-7.539c-1.573-0.715-3.356-1.266-5.012-0.77c-2.365,0.708-3.685,3.466-3.373,5.915
					c0.312,2.449,1.911,4.562,3.778,6.177C594.275,76.983,596.562,78.259,599.047,78.568z"/>
				<path style="fill:#5D9FB2;" d="M566.06,63.949c-0.656,1.143-1.011,2.656-0.25,3.731c0.49,0.691,1.352,1.043,2.197,1.104
					c0.845,0.06,1.685-0.134,2.505-0.346c1.391-0.358,2.793-0.78,3.986-1.579c1.193-0.8,2.165-2.038,2.327-3.465
					C577.602,56.59,567.854,60.821,566.06,63.949z"/>
				<path style="fill:#5D9FB2;" d="M589.355,94.504c-0.063,1.589-0.92,3.258-2.423,3.778c-1.59,0.551-3.431-0.403-4.26-1.868
					c-0.828-1.465-0.798-3.285-0.345-4.905C584.018,85.473,589.526,90.147,589.355,94.504z"/>
				<path style="fill:#5D9FB2;" d="M581.164,49.377c-2.083-0.999-4.255,0.48-3.495,2.836c0.559,1.734,3.055,2.923,4.626,3.478
					C588.027,57.714,583.735,50.611,581.164,49.377z"/>
				<path style="fill:#5D9FB2;" d="M570.326,6.239c-0.652,0.336-1.356,0.86-1.345,1.595c0.086,5.325,14.5-0.42,8.282-3.033
					C575.264,3.96,572.1,5.324,570.326,6.239z"/>
			</g>
			<g>
				<path style="fill:#E89382;" d="M-39.99,563.649c-0.023,5.981,2.73,11.966,7.442,15.648c4.268,3.336,9.717,4.652,14.908,6.201
					s10.57,3.607,13.918,7.866c1.513,1.924,2.52,4.194,3.909,6.209c1.389,2.015,3.332,3.855,5.75,4.228
					c3.015,0.466,5.873-1.439,8.094-3.529c8.893-8.366,13.021-21.489,10.521-33.44c-2.5-11.951-11.543-22.317-23.045-26.417
					c-7.048-2.512-14.874-2.616-22.049-0.558c-6.813,1.954-11.103,4.977-14.911,10.715
					C-38.104,554.571-39.971,558.754-39.99,563.649z"/>
			</g>
			<g>
				<path style="fill:#5D9FB2;" d="M38.484,620.988c-2.377,2.922-4.755,5.844-7.132,8.766c-0.58,0.713-1.191,1.515-1.153,2.433
					c0.045,1.093,0.981,1.911,1.853,2.57c1.388,1.048,2.838,2.065,4.49,2.612s3.551,0.571,5.053-0.307
					c0.938-0.549,1.655-1.404,2.292-2.284c1.638-2.264,2.867-4.793,4.087-7.308c0.513-1.058,1.034-2.14,1.178-3.307
					c0.297-2.411-1.397-7.173-3.719-8.299C42.815,614.595,39.834,619.328,38.484,620.988z"/>
				<path style="fill:#5D9FB2;" d="M50.774,640.25c-0.653,1.073-0.87,2.346-1.076,3.584c-0.769,4.643-1.527,9.49-0.124,13.983
					c0.197,0.631,0.486,1.306,1.083,1.591c0.441,0.21,0.956,0.159,1.441,0.103c1.234-0.142,2.467-0.285,3.7-0.427
					c2.942-0.34,6.321-0.957,7.767-3.541c1.177-2.104,0.56-4.809-0.727-6.846c-1.287-2.038-3.156-3.631-4.718-5.466
					C56.359,641.162,53.291,636.114,50.774,640.25z"/>
				<path style="fill:#5D9FB2;" d="M22.268,654.609c-0.511,1.072-0.619,2.399-0.015,3.422c0.875,1.482,2.806,1.834,4.443,2.363
					c2.533,0.819,4.761,2.364,7.181,3.472c0.904,0.414,1.923,0.771,2.873,0.479c1.218-0.374,1.91-1.743,1.899-3.017
					c-0.011-1.274-0.571-2.473-1.148-3.609c-0.541-1.066-1.108-2.119-1.699-3.158c-1.318-2.317-3.718-5.877-6.88-5.475
					C26.506,649.393,23.25,652.547,22.268,654.609z"/>
			</g>
			<g>
				<path style="fill:#F8F5F0;" d="M32,767.025c-4.9,3.044-8.577,5.729-13.553,4.956c-5.165-0.804-7.845-3.521-8.074-8.35
					c-0.23-4.865,2.092-8.057,7.156-9.041c2.846-0.553,5.857-0.687,8.75-0.458c3.357,0.265,6.63,1.755,7.037,5.426
					C33.608,762.186,32.404,764.98,32,767.025z"/>
				<path style="fill:#F8F5F0;" d="M17.303,732.503c-3.028-2.837-2.958-7.283,0.168-10.641c3.588-3.854,12.083-3.679,16.002,0.329
					c2.438,2.494,2.489,8.318,0.097,11.077C30.674,736.609,21.209,736.164,17.303,732.503z"/>
				<path style="fill:#F8F5F0;" d="M-13.126,752.362c-2.975-2.85-3.32-8.791-0.678-11.691c2.491-2.735,10.317-2.528,13.306,0.352
					c2.666,2.568,3.317,8.725,1.161,10.979C-2.911,755.737-9.425,755.907-13.126,752.362z"/>
			</g>
			<g>
				<path style="fill:#FFA557;" d="M356.843,794.084c0,3.16,0.771,6.44,1.91,9.188c1.181,2.849,3.002,5.698,5.149,7.845
					c2.147,2.147,5.588,2.54,8.436,3.722c2.748,1.139,5.436,3.031,8.596,3.031s6.223-0.987,8.971-2.126
					c2.849-1.181,5.958-2.436,8.105-4.583c2.147-2.147,3.302-5.297,4.483-8.146c1.139-2.748,2.556-5.77,2.556-8.93
					s-2.159-5.874-3.298-8.622c-1.181-2.849-2.04-5.861-4.187-8.008c-2.147-2.147-4.916-3.592-7.765-4.773
					c-2.748-1.14-5.705-1.656-8.865-1.656c-3.16,0-5.916,1.002-8.664,2.142c-2.849,1.181-5.083,2.877-7.23,5.023
					c-2.147,2.147-4.287,4.197-5.469,7.045C358.432,787.984,356.843,790.924,356.843,794.084z"/>
			</g>
			<path style="fill:#E89382;" d="M485.753,885.717c2.397-1.563,4.605-3.66,6.556-6.394c12.589-17.641,18.109-54.147-3.577-67.399
				c-9.217-5.633-20.914-9.132-31.109-12.583c-15.279-5.171-28.515-4.656-41.436,6.069c-10.251,8.508-21.271,20.217-23.791,33.795
				c-1.368,7.369,0.283,15.587,5.604,20.865c4.382,4.347,10.561,6.211,16.328,8.411C434.005,875.99,464.343,899.674,485.753,885.717
				z"/>
			<g>
				<path style="fill:#F8F5F0;" d="M525.803,790.598c-4.723-14.546,5.174-28.025-0.891-41.915
					c-2.245-5.141-6.742-9.847-11.051-13.689c-6.327-5.641-10.742-9.77-15.359-16.964c0.698,12.567-7.547,20.885-2.95,33.806
					c1.956,5.497,3.335,10.807,4.402,16.575c1.289,6.972,5.251,9.429,10.788,13.126
					C515.365,784.624,520.352,788.297,525.803,790.598z"/>
				<path style="fill:#F8F5F0;" d="M536.256,783.662c-11.933-13.832,12.242-30.863,15.702-42.708
					c3.015-10.323-1.441-19.271-1.458-29.705c-0.013-7.998,2.509-13.373,7.719-19.228c2.506-2.816,6.304-5.47,7.002-8.368
					c-1.794,17.881,17.071,32.831,8.561,51.114c-4.14,8.895-7.724,14.07-7.384,24.033c0.329,9.633-2.294,13.142-10.787,17.413
					C549.504,779.286,543.017,782.946,536.256,783.662z"/>
				<path style="fill:#F8F5F0;" d="M529.419,807.432c-0.289-11.101,18.098-8.61,24.603-9.391c3.482-0.418,7.84-1.265,11.023-2.845
					c3.211-1.593,4.514-4.262,6.881-6.668c7.758-7.886,18.689-6.188,28.568-7.724c-7.376,11.555-11.807,24.039-24.768,30.79
					c-11.02,5.74-23.959,5.199-35.231,0.916C537.037,811.197,532.243,809.702,529.419,807.432z"/>
				<path style="fill:#F8F5F0;" d="M679.302,855.644c-0.373,0-0.73-0.209-0.902-0.567c-8.883-18.536-36.233-15.613-54.331-13.68
					c-1.091,0.117-2.146,0.229-3.16,0.334c-5.762,0.592-11.416,1.696-16.883,2.765c-4.352,0.851-8.852,1.729-13.472,2.37
					c-12.699,1.763-25.83,3.585-38.87,1.916c-8.521-1.091-24.222-4.789-33.64-17.31c-9.561-12.712-3.765-27.027,6.221-35.575
					c1.081-0.925,2.175-1.732,3.234-2.512c2.581-1.902,5.018-3.699,6.581-6.795c0.595-1.179,1.004-2.818,1.437-4.554
					c0.705-2.823,1.433-5.742,3.156-7.408c0.396-0.384,1.029-0.375,1.414,0.023c0.384,0.397,0.373,1.03-0.024,1.414
					c-1.312,1.269-1.969,3.904-2.605,6.454c-0.461,1.848-0.897,3.593-1.593,4.972c-1.777,3.521-4.401,5.455-7.18,7.503
					c-1.03,0.759-2.095,1.544-3.12,2.422c-9.276,7.939-14.705,21.178-5.923,32.854c8.976,11.934,24.086,15.477,32.295,16.527
					c12.776,1.634,25.772-0.168,38.341-1.912c4.564-0.634,9.037-1.508,13.362-2.352c5.511-1.077,11.21-2.19,17.063-2.792
					c1.011-0.104,2.064-0.216,3.151-0.332c18.659-1.993,46.853-5.008,56.347,14.803c0.239,0.498,0.028,1.096-0.47,1.334
					C679.594,855.613,679.447,855.644,679.302,855.644z"/>
			</g>
			<g>
				<g>
					<g>
						<path style="fill:#305569;" d="M569.256,652.481c1.074-0.575,2.563-0.326,3.18,0.815c0.834,1.542,1.789,3.007,2.849,4.403
							c-0.033-0.042-0.065-0.084-0.088-0.109c0.032,0.037,0.062,0.077,0.092,0.116c0.002,0.003,0.004,0.006,0.006,0.008
							c0.122,0.161,0.075,0.096,0.007,0.008c0.027,0.035,0.055,0.069,0.082,0.103c0.141,0.176,0.284,0.35,0.43,0.522
							c0.274,0.326,0.554,0.647,0.84,0.963c0.602,0.663,1.321,1.252,1.888,1.941c0.775,0.944,0.992,2.158,0.207,3.185
							c-0.66,0.865-2.158,1.372-3.126,0.643c-1.683-1.269-3.047-3.072-4.295-4.754c-1.091-1.471-2.054-3.032-2.888-4.662
							C567.889,654.581,568.105,653.097,569.256,652.481z"/>
					</g>
					<g>
						<path style="fill:#305569;" d="M575.286,657.698c0.006,0.008,0.011,0.015,0.018,0.023c-0.004-0.005-0.009-0.011-0.013-0.016
							L575.286,657.698z"/>
					</g>
				</g>
				<g>
					<path style="fill:#305569;" d="M553.189,649.866c0.049-0.16,0.097-0.319,0.146-0.479c0.088-0.213,0.177-0.425,0.265-0.637
						c0.166-0.311,0.393-0.561,0.681-0.751c0.165-0.166,0.36-0.281,0.585-0.346c0.316-0.168,0.658-0.247,1.024-0.235
						c0.236,0.03,0.472,0.061,0.708,0.091l0.637,0.265c0.311,0.166,0.561,0.393,0.751,0.681c0.237,0.256,0.397,0.557,0.481,0.903
						c0.05,0.159,0.101,0.318,0.151,0.478c0.137,0.498,0.14,0.997,0.008,1.497c-0.131,0.478-0.37,0.893-0.717,1.247
						c-0.189,0.148-0.378,0.296-0.567,0.444c-0.438,0.257-0.911,0.388-1.419,0.392c-0.388,0.017-0.75-0.062-1.086-0.236
						c-0.349-0.112-0.653-0.304-0.909-0.577c-0.351-0.349-0.594-0.762-0.731-1.238C553.06,650.865,553.057,650.366,553.189,649.866z
						"/>
				</g>
				<g>
					<path style="fill:#305569;" d="M557.738,671.047c0.112-0.484,0.331-0.906,0.658-1.267c0.47-0.616,1.145-1.16,1.922-1.342
						c0.916-0.214,2.068-0.217,2.864,0.358c0.787,0.568,1.567,1.162,2.268,1.835c0.71,0.681,1.312,1.442,1.914,2.22
						c0.412,0.533,0.792,1.087,1.127,1.672c0.542,0.946,0.846,2.086,0.524,3.169c-0.114,0.383-0.291,0.759-0.452,1.126
						c-0.086,0.196-0.18,0.388-0.281,0.576c-0.276,0.517-0.77,0.896-1.296,1.122c-0.533,0.229-1.205,0.337-1.772,0.147
						c-0.225-0.075-0.453-0.142-0.683-0.199c-0.72-0.178-1.372-0.546-1.92-1.043c-0.421-0.382-0.587-0.76-0.832-1.21
						c-0.295-0.543-0.65-1.05-1.014-1.55c-0.62-0.732-1.294-1.414-2.05-2.007c-0.364-0.334-0.622-0.731-0.775-1.191
						c-0.235-0.441-0.345-0.918-0.328-1.429C557.653,671.706,557.696,671.377,557.738,671.047z"/>
				</g>
				<g>
					<path style="fill:#305569;" d="M582.628,643.372c0.54-0.501,1.25-0.875,2.009-0.845c0.763,0.03,1.457,0.287,2.018,0.823
						c1.077,1.027,2.154,2.055,3.23,3.082c0.131,0.125,0.262,0.25,0.393,0.375c0.459,0.438,0.708,0.934,0.949,1.511
						c0.122,0.293,0.241,0.586,0.361,0.879c0.127,0.309,0.254,0.619,0.381,0.928c0.06,0.145,0.135,0.29,0.18,0.44
						c0.081,0.261,0.088,0.551,0.111,0.823c0.066,0.772-0.738,1.583-1.508,1.525c-0.434-0.032-0.816-0.098-1.217-0.258
						c-0.311-0.124-0.622-0.247-0.933-0.371c-0.295-0.117-0.589-0.234-0.883-0.351c-0.616-0.246-1.054-0.442-1.529-0.908
						c-0.143-0.141-0.281-0.288-0.421-0.432c-1.04-1.065-2.079-2.13-3.119-3.195c-0.516-0.528-0.841-1.265-0.845-2.009
						C581.801,644.692,582.107,643.856,582.628,643.372z"/>
				</g>
				<g>
					<path style="fill:#305569;" d="M597.644,671.618c0.099-0.427,0.293-0.8,0.581-1.119c0.229-0.358,0.535-0.642,0.916-0.85
						c0.759-0.406,1.68-0.614,2.526-0.345c0.836,0.266,1.484,0.756,1.969,1.497c0.931,1.42,1.872,2.832,2.75,4.286
						c0.108,0.253,0.217,0.507,0.326,0.76c0.135,0.423,0.156,0.847,0.064,1.271c0.001,0.288-0.07,0.557-0.213,0.806
						c-0.126,0.396-0.344,0.74-0.654,1.03c-0.492,0.487-0.767,0.579-1.403,0.828c-0.282,0.04-0.565,0.079-0.847,0.119
						c-0.439,0.019-0.849-0.07-1.23-0.268c-0.271-0.074-0.506-0.209-0.706-0.406c-0.349-0.223-0.624-0.52-0.826-0.89
						c-1.007-1.371-1.951-2.785-2.907-4.193c-0.242-0.375-0.374-0.781-0.396-1.218C597.493,672.491,597.51,672.055,597.644,671.618z
						"/>
				</g>
				<g>
					<path style="fill:#305569;" d="M581.368,682.693c0.13-0.482,0.498-1.005,0.946-1.245c0.48-0.257,1.062-0.388,1.597-0.218
						c0.496,0.157,1.001,0.466,1.245,0.946c0.398,0.781,0.796,1.563,1.194,2.344c0.192,0.378,0.384,0.755,0.576,1.132
						c0.162,0.318,0.347,0.639,0.459,0.979c0.121,0.366,0.078,0.745,0.056,1.118c-0.038,0.633-0.303,1.195-0.865,1.528
						c-0.524,0.311-1.255,0.345-1.781,0.01c-0.284-0.181-0.591-0.355-0.832-0.591c-0.286-0.28-0.432-0.589-0.606-0.931
						c-0.192-0.377-0.384-0.754-0.576-1.132c-0.398-0.781-0.796-1.563-1.194-2.344C581.332,683.79,581.219,683.246,581.368,682.693z
						"/>
				</g>
				<g>
					<path style="fill:#305569;" d="M572.125,701.068c0.016-0.408,0.135-0.788,0.357-1.141c0.368-0.638,1.094-1.248,1.823-1.419
						c0.784-0.183,1.664-0.149,2.363,0.296c0.637,0.406,1.277,1.05,1.419,1.823c0.088,0.48,0.251,0.939,0.42,1.395
						c0.23,0.473,0.491,0.928,0.803,1.352c0.204,0.222,0.407,0.448,0.535,0.687c0.112,0.208,0.227,0.482,0.296,0.709
						c0.15,0.488,0.094,0.96,0.004,1.446c-0.011,0.057-0.023,0.114-0.032,0.172c-0.108,0.393-0.304,0.734-0.589,1.024
						c-0.287,0.289-0.626,0.489-1.018,0.601c-0.063,0.022-0.125,0.045-0.188,0.064c-0.659,0.204-1.58,0.118-2.182-0.265
						c-0.36-0.23-0.704-0.533-1.017-0.829c-0.502-0.474-0.923-1.015-1.341-1.563c-0.711-0.934-1.218-2.022-1.591-3.131
						C572.057,701.883,572.036,701.476,572.125,701.068z"/>
				</g>
				<g>
					<path style="fill:#305569;" d="M533.154,687.157c0.213-0.791,0.819-1.65,1.553-2.044c0.788-0.422,1.743-0.637,2.621-0.358
						c0.271,0.113,0.543,0.225,0.815,0.338c0.513,0.3,0.923,0.705,1.228,1.214c0.97,1.294,1.939,2.588,2.909,3.882
						c0.477,0.637,0.958,1.272,1.432,1.911c0.234,0.316,0.474,0.641,0.682,0.976c0.585,0.941,0.731,2.165,0.306,3.189
						c-0.097,0.232-0.193,0.464-0.289,0.697c-0.181,0.34-0.429,0.613-0.745,0.82c-0.537,0.42-1.075,0.572-1.759,0.634
						c-1.061,0.097-2.132-0.29-2.895-1.044c-0.452-0.447-0.845-1.068-1.229-1.588c-0.486-0.659-0.95-1.335-1.424-2.002
						c-0.949-1.335-1.898-2.67-2.847-4.005C533.025,689.093,532.943,687.94,533.154,687.157z"/>
				</g>
				<g>
					<path style="fill:#305569;" d="M526.012,659.352c0.092-0.223,0.185-0.445,0.277-0.667c0.173-0.326,0.411-0.587,0.713-0.786
						c0.094-0.073,0.187-0.146,0.281-0.219c0.319-0.205,0.663-0.317,1.034-0.336c0.37-0.085,0.74-0.07,1.111,0.043
						c0.223,0.092,0.445,0.185,0.667,0.277c0.094,0.072,0.189,0.144,0.283,0.216c0.304,0.195,0.545,0.454,0.722,0.778
						c0.095,0.221,0.19,0.443,0.284,0.664c0.135,0.493,0.138,0.987,0.008,1.481c-0.041,0.156-0.083,0.312-0.124,0.468l-0.007,0.025
						c-0.001,0.005-0.003,0.009-0.004,0.014c-0.098,0.365-0.146,0.396-0.33,0.637c-0.048,0.063-0.096,0.126-0.144,0.189
						c-0.167,0.182-0.366,0.311-0.595,0.387c-0.138,0.059-0.148,0.074-0.232,0.098l-0.032,0.009
						c-0.038,0.01-0.076,0.021-0.115,0.032c-0.078,0.021-0.156,0.043-0.234,0.064c-0.021,0.006-0.043,0.012-0.064,0.018
						c-0.011,0.003-0.022,0.006-0.032,0.009l-0.015,0.004c-0.571,0.156-0.645,0.119-1.118,0.058
						c-0.123-0.016-0.247-0.032-0.371-0.048c-0.363-0.084-0.679-0.249-0.95-0.493c-0.21-0.123-0.378-0.288-0.502-0.497
						c-0.248-0.268-0.416-0.583-0.504-0.945c-0.017-0.123-0.035-0.247-0.052-0.37C525.884,660.093,525.898,659.723,526.012,659.352z
						"/>
				</g>
				<g>
					<path style="fill:#305569;" d="M531.057,633.041c0.259-0.282,0.567-0.482,0.923-0.6c0.342-0.182,0.711-0.267,1.107-0.254
						c0.519-0.002,1.005,0.127,1.455,0.385c0.434,0.253,0.78,0.596,1.038,1.027c0.405,0.586,0.809,1.171,1.214,1.757
						c0.198,0.287,0.418,0.568,0.59,0.871c0.086,0.152,0.177,0.302,0.258,0.458c0.045,0.09,0.085,0.182,0.12,0.277
						c0.096,0.163,0.145,0.339,0.146,0.529c0.025,0.179,0.045,0.228,0.029,0.364c-0.009,0.071-0.017,0.142-0.026,0.213
						c0.011,0.243-0.039,0.47-0.148,0.68c-0.07,0.219-0.19,0.409-0.362,0.57c-0.118,0.093-0.236,0.185-0.355,0.278
						c-0.274,0.161-0.57,0.243-0.889,0.246c-0.064,0.008-0.128,0.016-0.192,0.025c-0.035,0.005-0.071,0.012-0.107,0.014
						c-0.186-0.024-0.372-0.048-0.559-0.072c-0.167-0.069-0.335-0.139-0.502-0.209c-0.157-0.077-0.309-0.167-0.462-0.252
						c-0.314-0.174-0.606-0.394-0.903-0.594c-0.59-0.398-1.18-0.796-1.77-1.194c-0.434-0.253-0.78-0.596-1.038-1.027
						c-0.263-0.448-0.397-0.931-0.401-1.451C530.256,634.317,530.51,633.595,531.057,633.041z"/>
				</g>
				<g>
					<path style="fill:#305569;" d="M556.905,620.314c0.11-0.346,0.301-0.646,0.571-0.9c0.528-0.49,1.223-0.856,1.965-0.827
						c0.247,0.032,0.494,0.064,0.741,0.095c0.472,0.13,0.884,0.366,1.233,0.709c0.636,0.554,1.272,1.107,1.909,1.661
						c0.308,0.269,0.617,0.537,0.926,0.806c0.084,0.073,0.168,0.147,0.253,0.22c0.375,0.326,0.662,0.793,0.803,1.269
						c0.065,0.219,0.097,0.528,0.112,0.755c0.003,0.039,0.003,0.079,0.005,0.119c0.003,0.071,0.007,0.143,0.009,0.214
						c-0.025,0.198-0.051,0.395-0.076,0.593c-0.067,0.29-0.199,0.544-0.395,0.76c-0.264,0.345-0.704,0.74-1.153,0.805
						c-0.336,0.049-0.686,0.138-1.022,0.139c-0.129-0.005-0.256-0.02-0.383-0.047c-0.354-0.014-0.685-0.117-0.991-0.31
						c-0.209-0.133-0.405-0.308-0.6-0.459c-0.079-0.061-0.158-0.122-0.237-0.183c-0.345-0.267-0.69-0.534-1.036-0.801l-2.041-1.579
						c-0.273-0.251-0.467-0.548-0.581-0.893c-0.176-0.331-0.258-0.688-0.246-1.072C556.655,621.005,556.733,620.647,556.905,620.314
						z"/>
				</g>
				<g>
					<path style="fill:#305569;" d="M557.876,721.083c0.251-0.791,0.674-1.439,1.331-1.953c1.377-1.076,3.685-1.143,4.919,0.265
						c0.703,0.803,1.421,1.57,2.047,2.44c0.368,0.512,0.751,1.013,1.135,1.513c0.236,0.294,0.47,0.59,0.711,0.88
						c0.645,0.774,0.981,1.251,1.333,2.198c0.009,0.024,0.018,0.047,0.027,0.071c0.303,0.503,0.611,1.004,0.93,1.497
						c0.172,0.267,0.36,0.528,0.517,0.803c0.404,0.707,0.52,1.409,0.437,2.186c-0.077,0.72-0.235,1.432-0.796,1.952
						c-0.555,0.516-1.183,0.764-1.943,0.818c-0.762,0.054-1.472-0.049-2.158-0.445c-0.479-0.277-0.939-0.705-1.381-1.057
						c-0.367-0.293-0.725-0.597-1.085-0.897c-0.188-0.112-0.378-0.221-0.562-0.34c-0.82-0.529-1.316-1.206-1.893-1.963
						c-0.411-0.538-0.811-1.083-1.202-1.635c-0.375-0.53-0.746-1.064-1.098-1.61c-0.364-0.564-0.607-1.228-0.876-1.841
						C557.867,723.05,557.555,722.096,557.876,721.083z"/>
				</g>
				<g>
					<path style="fill:#305569;" d="M602.76,646.27c0.512-0.4,1.176-0.691,1.843-0.665c0.764,0.03,1.648,0.27,2.16,0.881
						c1.082,1.292,1.953,2.794,2.887,4.196c0.825,1.238,1.651,2.476,2.476,3.714c0.819,1.229,0.303,3.167-0.989,3.859
						c-0.652,0.349-1.443,0.527-2.169,0.296c-0.741-0.235-1.226-0.666-1.69-1.285c-0.883-1.175-1.765-2.35-2.648-3.526
						c-0.434-0.578-0.868-1.155-1.302-1.733c-0.443-0.589-0.957-1.167-1.333-1.801C601.22,648.893,601.576,647.195,602.76,646.27z"
						/>
				</g>
				<g>
					<path style="fill:#305569;" d="M501.373,643.987l-2.508-3.169c-0.431-0.544-0.862-1.088-1.292-1.632
						c-0.379-0.479-0.815-0.936-1.056-1.499c-0.17-0.397-0.247-0.788-0.337-1.208c-0.184-0.858-0.027-1.711,0.607-2.352
						c0.561-0.567,1.561-0.93,2.345-0.634c0.253,0.095,0.507,0.19,0.758,0.29c0.711,0.284,1.184,0.636,1.691,1.176
						c0.472,0.502,0.944,1.005,1.416,1.508c0.944,1.005,1.887,2.01,2.831,3.016c1.889,2.013,3.648,4.153,5.451,6.244
						c1.098,1.274,1.369,3.305,0.026,4.552c-1.194,1.109-3.378,1.388-4.552,0.026C504.947,648.211,503.088,646.154,501.373,643.987"
						/>
				</g>
				<g>
					<path style="fill:#305569;" d="M509.411,683.446c0.228-0.848,0.878-1.77,1.666-2.192c0.845-0.453,1.871-0.683,2.812-0.384
						c0.929,0.294,1.656,0.841,2.192,1.666c0.616,0.948,1.232,1.896,1.848,2.844c0.307,0.474,0.629,0.941,0.924,1.422
						c0.291,0.476,0.493,1.032,0.721,1.542c0.258,0.4,0.399,0.833,0.423,1.298c0.107,0.464,0.088,0.93-0.055,1.395
						c-0.234,0.739-0.63,1.345-1.243,1.824c-0.587,0.459-1.348,0.793-2.115,0.763c-0.883-0.034-1.881-0.313-2.479-1.011
						c-0.534-0.622-1.122-1.245-1.579-1.924c-0.326-0.484-0.615-0.998-0.921-1.494c-0.603-0.979-1.207-1.958-1.81-2.937
						C509.303,685.46,509.169,684.345,509.411,683.446z"/>
				</g>
			</g>
			<g>
				<path style="fill:#FFA557;" d="M532.323,498.053c-0.023,5.981,2.73,11.965,7.442,15.648c4.268,3.336,9.717,4.652,14.908,6.201
					s10.57,3.607,13.918,7.866c1.513,1.924,2.52,4.194,3.909,6.209c1.389,2.015,3.332,3.855,5.75,4.228
					c3.015,0.466,5.873-1.439,8.095-3.529c8.893-8.367,13.021-21.489,10.521-33.44c-2.501-11.951-11.544-22.317-23.045-26.416
					c-7.048-2.512-14.874-2.616-22.049-0.558c-6.813,1.954-11.103,4.977-14.911,10.715
					C534.209,488.975,532.342,493.158,532.323,498.053z"/>
			</g>
			<path style="fill:#F8F5F0;" d="M554.509,577.561c1.314,1.573,2.975,2.992,4.986,3.388c2.337,0.459,4.689-0.527,6.867-1.492
				c1.519-0.673,3.038-1.346,4.557-2.019c1.154-0.511,2.333-1.039,3.245-1.911c1.792-1.713,2.214-4.408,2.193-6.887
				c-0.043-4.794-1.424-9.64-4.316-13.463c-1.933-2.556-4.617-4.666-7.75-5.337c-3.133-0.671-6.712,0.318-8.63,2.885
				c-0.651,0.871-1.092,1.877-1.527,2.873c-0.732,1.674-1.464,3.348-2.195,5.023C549.223,566.835,550.103,572.29,554.509,577.561z"
				/>
			<g>
				<path style="fill:#305569;" d="M332.146,823.279c-4.5,7.16-8.088,14.905-10.625,22.972c-2.486,7.905-4.268,16.35-3.531,24.672
					c0.351,3.961,1.36,7.844,3.157,11.399c0.355,0.703,1.451,0.159,1.096-0.544c-3.779-7.476-3.699-16.131-2.262-24.201
					c1.455-8.167,4.176-16.169,7.747-23.647c7.087-14.843,17.938-28.124,31.727-37.208c6.83-4.5,14.356-7.95,22.281-9.999
					c8.103-2.095,16.531-2.774,24.874-2.204c17.866,1.22,34.849,8.195,49.272,18.657c15.408,11.177,28.108,26.144,36.981,42.96
					c4.368,8.279,7.946,17.096,10.198,26.193c2.144,8.661,2.659,17.614,0.133,26.254c-2.373,8.115-7.058,15.524-13.486,21.032
					c-6.635,5.685-14.994,9.299-23.669,10.304c-16.13,1.87-31.204-6.396-47.213-6.388c-4.324,0.002-8.538,0.762-12.723,1.803
					c-4.323,1.075-8.609,2.317-13.038,2.893c-7.96,1.036-16.122,0.234-23.797-2.076c-16.602-4.996-30.289-16.975-38.039-32.421
					c-2.008-4.001-3.604-8.219-4.785-12.536c-0.167-0.611-1.121-0.427-0.972,0.198c4.179,17.505,16.141,32.932,32.05,41.344
					c7.153,3.783,15.024,6.203,23.084,6.976c4.056,0.389,8.153,0.345,12.199-0.142c4.508-0.543,8.866-1.784,13.259-2.887
					c4.434-1.113,8.88-1.925,13.467-1.852c4.02,0.065,8.015,0.646,11.952,1.434c7.959,1.593,15.774,3.989,23.866,4.871
					c8.58,0.935,17.189-0.331,25.021-4.018c7.877-3.709,14.567-9.669,19.106-17.102c4.49-7.353,6.868-15.94,6.689-24.559
					c-0.192-9.272-2.932-18.376-6.282-26.954c-7.088-18.152-18.456-34.663-32.841-47.806c-13.73-12.544-30.439-22.107-48.767-25.843
					c-16.555-3.375-34.004-1.993-49.406,5.164C353.644,797.094,341.034,809.137,332.146,823.279z"/>
			</g>
			<path style="fill:none;stroke:#305569;stroke-width:2;stroke-miterlimit:10;" d="M647.168,424.132
				c-9.593,20.774-28.97,35.274-48.811,46.672c-19.841,11.398-41.116,20.758-58.596,35.524c-4.683,3.956-9.186,8.463-11.404,14.178
				c-5.185,13.363,4.208,28.644,16.664,35.736c12.456,7.092,27.232,8.392,41.301,11.133c14.069,2.74,28.885,7.802,37.043,19.588"/>
			<path style="fill:#E7AE5E;" d="M48.073,893.435c7.384-1.129,14.667-2.879,21.738-5.246c7.614-2.548,15.238-5.965,20.609-11.933
				c12.913-14.347,3.303-33.082-12.293-39.859c-13.644-5.929-27.903-8.267-41.571-14.009c-17.275-7.257-31.86-16.563-47.936-25.846
				c-32.069-18.519-86.949-3.484-69.062,41.807c9.593,24.289,37.505,38.62,60.384,47.651
				C1.426,894.482,25.23,896.928,48.073,893.435z"/>
			<path style="fill:#5D9FB2;" d="M32.559,830.844c11.7-5.091,16.972-11.708,9.96-22.9c-3.628-5.791-6.417-13.143-14.757-11.766
				c-5.433,0.897-16.393,6.402-19.307,10.962c-4.346,6.8,2.941,12.116,7.094,16.413C18.83,826.945,26.898,836.154,32.559,830.844z"
				/>
			<path style="fill:#F8F5F0;" d="M-20.279,221.82c1.85,1.625,3.71,3.239,5.549,4.878c7.096,6.325,14.501,12.204,23.256,16.135
				c0.952,0.427,1.936,0.781,3.264,1.313c-0.365-4.194-0.32-7.959,1.12-11.551c2.25-2.24,4.55-4.383,7.808-5.105
				c6.934-1.537,12.855,0.349,17.728,5.396c2.234,2.314,2.458,5.696,0.989,8.613c-2.059,4.092-5.372,6.507-9.864,7.199
				c-3.792,0.585-7.606,0.741-11.405-0.086c-0.715-0.156-1.464-0.152-2.408-0.243c0.063,0.631,0.015,1.198,0.189,1.685
				c0.421,1.172,0.86,2.352,1.443,3.448c3.171,5.959,6.668,11.719,10.901,16.993c7.453,9.285,9.912,19.965,7.88,31.444
				c-1.454,8.212-5.385,15.347-12.713,20.096c-0.686,0.445-1.254,1.071-1.877,1.613c-2.511,1.425-4.944,3.018-7.551,4.241
				c-5.582,2.618-11.579,3.172-17.661,3.105c-4.106-0.595-8.243-1.029-12.308-1.828c-4.791-0.942-9.521-2.2-14.277-3.321
				c0.063-0.664,0.127-1.327,0.19-1.991c0.892,0.149,1.795,0.249,2.673,0.456c6.841,1.612,13.677,3.25,20.7,3.897
				c6.632,0.842,13.135,0.305,19.325-2.283c2.501-1.046,4.787-2.62,7.13-4.023c0.987-0.591,1.868-1.359,2.798-2.046
				c2.319-1.52,4.51-3.237,5.841-5.697c1.695-3.132,3.364-6.311,4.66-9.62c1.542-3.938,1.425-8.149,1.252-12.328
				c-0.279-6.762-2.493-12.845-6.313-18.372c-2.789-4.034-5.638-8.026-8.46-12.037c-1.618-2.792-3.326-5.537-4.819-8.395
				c-0.799-1.53-1.335-3.224-1.783-4.899c-0.3-1.12-0.943-1.68-1.926-2.064c-9.806-3.842-18.222-9.834-25.968-16.848
				c-1.903-1.723-3.737-3.523-5.602-5.288C-20.438,223.479-20.358,222.65-20.279,221.82z M21.591,247.001
				c1.854-0.049,3.686,0.005,5.496-0.168c3.691-0.353,6.897-1.735,9.276-4.726c2.412-3.033,2.3-6.513-0.678-8.82
				c-4.01-3.106-8.586-4.813-13.742-3.805c-3.968,0.776-6.66,3.007-7.678,7.191c-0.578,2.374-0.089,4.608,0.023,6.907
				c0.062,1.274,0.771,1.948,1.962,2.214C18.032,246.193,19.811,246.599,21.591,247.001z"/>
			<g>
				<path style="fill:#E7AE5E;" d="M79.704,810.745c-5.582-16.486,5.489-31.966-1.61-47.686c-2.628-5.819-7.813-11.111-12.771-15.42
					c-7.281-6.329-12.364-10.966-17.72-19.087c0.974,14.292-8.292,23.875-2.876,38.514c2.304,6.228,3.949,12.251,5.245,18.8
					c1.566,7.916,6.109,10.656,12.463,14.784C67.74,804.095,73.467,808.205,79.704,810.745z"/>
				<path style="fill:#E7AE5E;" d="M91.5,802.704c-13.776-15.571,13.493-35.296,17.262-48.825
					c3.285-11.79-1.914-21.909-2.081-33.783c-0.128-9.102,2.665-15.254,8.511-21.992c2.811-3.24,7.097-6.314,7.849-9.622
					c-1.788,20.374,19.893,37.118,10.469,58.046c-4.585,10.181-8.59,16.121-8.061,27.454c0.511,10.957-2.424,14.988-12.028,19.969
					C106.514,797.535,99.184,801.793,91.5,802.704z"/>
				<path style="fill:#E7AE5E;" d="M85.675,822.323c-0.486-12.629,20.473-10.056,27.864-11.036
					c3.957-0.525,8.904-1.552,12.504-3.394c3.632-1.859,5.077-4.914,7.736-7.685c8.716-9.084,21.18-7.307,32.4-9.196
					c-8.229,13.254-13.094,27.524-27.749,35.391c-12.459,6.688-27.191,6.257-40.08,1.543
					C94.397,826.5,88.921,824.866,85.675,822.323z"/>
			</g>
			<g>
				<path style="fill:none;stroke:#305569;stroke-width:2;stroke-miterlimit:10;" d="M-59.245,678.894
					c4.554-1.615,9.16-3.229,13.999-1.539c4.396,1.535,7.57,3.605,12.56,3.734c4.616,0.119,8.858-0.129,13.36-1.011
					c3.571-0.7,6.984-2.16,10.663-2.394c4.531-0.288,9.229,0.228,13.311,2.303c4.58,2.329,8.569,3.557,13.867,2.973
					c5.71-0.629,11.257-3.501,16.628-5.369c3.046-1.059,5.862-1.575,9.135-1.282c4.561,0.408,8.692,2.757,13.175,3.38"/>
				<path style="fill:none;stroke:#305569;stroke-width:2;stroke-miterlimit:10;" d="M-59.843,686.859
					c5.136-1.084,11.418-2.47,16.634-0.483c2.255,0.859,4.063,2.126,6.498,2.529c5.123,0.848,9.482,0.214,14.483-0.872
					c7.964-1.73,14.984-3.207,23.19-1.074c3.416,0.888,6.527,2.288,9.699,3.684c3.939,1.733,8.745,1.701,12.978,1.359
					c5.962-0.481,10.83-2.705,16.27-4.889c3.673-1.475,7.811-2.474,11.769-1.648"/>
				<path style="fill:none;stroke:#305569;stroke-width:2;stroke-miterlimit:10;" d="M-60.44,695.224
					c3.649-0.938,6.877-2.022,10.772-1.817c2.401,0.126,4.941,1.333,7.143,2.233c2.982,1.219,5.442,2.862,8.756,3.129
					c5.144,0.415,10.064-0.331,14.946-1.773c7.99-2.359,15.662-1.867,23.302,1.414c8.81,3.784,16.781,2.407,25.738-0.273
					c9.686-2.899,20.484-7.113,30.222-2.116"/>
			</g>
			<g>
				<path style="fill:none;stroke:#305569;stroke-width:1.5;stroke-miterlimit:10;" d="M586.463,117.922
					c1.615,4.554,3.229,9.16,1.539,13.999c-1.535,4.395-3.605,7.57-3.734,12.56c-0.119,4.617,0.129,8.858,1.011,13.36
					c0.7,3.571,2.16,6.984,2.394,10.663c0.288,4.531-0.228,9.229-2.303,13.311c-2.329,4.58-3.557,8.569-2.973,13.867
					c0.629,5.71,3.501,11.257,5.369,16.628c1.059,3.046,1.575,5.862,1.282,9.135c-0.408,4.561-2.757,8.691-3.38,13.175"/>
				<path style="fill:none;stroke:#305569;stroke-width:1.5;stroke-miterlimit:10;" d="M578.497,117.325
					c1.084,5.136,2.47,11.418,0.483,16.634c-0.859,2.255-2.126,4.063-2.529,6.498c-0.848,5.123-0.214,9.482,0.872,14.483
					c1.73,7.964,3.207,14.984,1.074,23.19c-0.888,3.416-2.288,6.527-3.684,9.699c-1.733,3.939-1.701,8.745-1.359,12.978
					c0.481,5.962,2.705,10.83,4.889,16.27c1.475,3.673,2.474,7.811,1.648,11.769"/>
				<path style="fill:none;stroke:#305569;stroke-width:1.5;stroke-miterlimit:10;" d="M570.133,116.727
					c0.938,3.649,2.022,6.877,1.817,10.772c-0.126,2.401-1.333,4.941-2.233,7.143c-1.219,2.982-2.862,5.442-3.129,8.756
					c-0.415,5.145,0.331,10.064,1.773,14.947c2.359,7.99,1.867,15.662-1.414,23.302c-3.784,8.81-2.407,16.781,0.273,25.738
					c2.899,9.686,7.113,20.484,2.116,30.222"/>
			</g>
			<g>
				<path style="fill:#305569;" d="M205.054,776.114c-7.171,5.79-9.572,11.41-2.542,17.859c3.637,3.337,6.991,7.921,12.534,5.362
					c3.611-1.667,10.187-7.604,11.342-11.339c1.722-5.569-4.373-7.873-8.09-10.068C215.363,776.195,207.977,771.33,205.054,776.114z
					"/>
				<path style="fill:#305569;" d="M187.106,801.034c2.322-3.759,2.514-6.683-1.692-8.481c-2.176-0.93-4.422-2.47-6.522-0.431
					c-1.368,1.329-3.398,5.06-3.326,6.933c0.107,2.793,3.23,2.865,5.26,3.266C182.43,802.638,186.545,803.663,187.106,801.034z"/>
				<path style="fill:#305569;" d="M213.437,821.475c2.514-4.071,2.722-7.237-1.832-9.184c-2.356-1.007-4.788-2.675-7.062-0.467
					c-1.481,1.439-3.679,5.479-3.601,7.507c0.116,3.024,3.498,3.102,5.696,3.537C208.374,823.212,212.83,824.322,213.437,821.475z"
					/>
			</g>
			<path style="fill:none;stroke:#305569;stroke-width:1.5;stroke-miterlimit:10;" d="M276.116,865.468
				c15.723-45.86,73.941-71.623,118.456-52.421c12.055,5.2,22.862,13.048,35.084,17.842c25.349,9.943,55.921,5.061,76.913-12.282
				c14.69-12.136,24.413-29.326,38.574-42.075c21.693-19.528,52.18-26.917,81.359-26.182s57.615,8.801,85.683,16.808"/>
			<path style="fill:#5D9FB2;" d="M453.452,735.035c-10.937-6.571-19.386-7.022-24.428,5.185
				c-2.609,6.316-6.976,12.855-1.013,18.846c3.884,3.903,14.729,9.631,20.134,9.356c8.059-0.409,8.158-9.428,9.245-15.305
				C458.249,748.477,461.063,736.561,453.452,735.035z"/>
			<path style="fill:#FFA557;" d="M487.93,651.546c0.058-1.458,0.345-2.965-0.128-4.345c-0.473-1.38-2.118-2.506-3.39-1.791
				l-4.042-3.312c-9.278,2.302-19.211,6.128-23.677,14.581c-3.311,6.267-2.762,14.305,1.099,20.249
				c3.861,5.944,10.794,9.677,17.876,9.967c7.704,0.315,16.184-4.384,17.403-11.997C494.345,666.943,487.609,659.594,487.93,651.546
				z"/>
			<g>
				<path style="fill:#305569;" d="M180.453,74.753c-0.281,12.514-11.568,20.254-10.635,32.623
					c0.345,4.578,2.549,9.429,4.839,13.561c3.364,6.067,5.66,10.451,7.283,17.256c2.856-9.898,11.473-14.096,11.412-25.321
					c-0.026-4.776,0.343-9.251,1.077-13.995c0.888-5.735-1.509-8.703-4.788-13.055C186.903,82.188,184.043,78.003,180.453,74.753z"
					/>
				<path style="fill:#305569;" d="M170.504,77.287c5.482,13.91-17.796,20.537-23.669,28.753c-5.118,7.16-4.093,15.277-6.899,23.343
					c-2.151,6.183-5.551,9.654-11.159,12.77c-2.697,1.499-6.348,2.523-7.67,4.573c6.217-13.33-4.319-29.976,7.195-41.802
					c5.601-5.753,9.769-8.783,12.198-16.572c2.348-7.531,5.323-9.533,13.038-10.539C159.086,77.089,165.087,76.014,170.504,77.287z"
					/>
				<path style="fill:#305569;" d="M182.208,60.77c-2.776,8.654-16.308,1.762-21.544,0.608c-2.803-0.618-6.398-1.14-9.285-0.78
					c-2.911,0.363-4.639,2.073-7.118,3.292c-8.124,3.997-16.11-0.269-24.157-1.75c8.82-6.934,15.616-15.382,27.454-17.096
					c10.064-1.457,19.914,2.456,27.466,8.811C177.34,55.803,180.639,58.254,182.208,60.77z"/>
				<path style="fill:none;stroke:#305569;stroke-width:1.6369;stroke-linecap:round;stroke-miterlimit:10;" d="M165.852,82.871
					c2.6-1.198,4.426-5.795,6.555-7.847c3.041-2.93,6.616-3.25,10.368-4.711c10.452-4.073,17.556-13.427,13.935-24.793
					c-3.179-9.977-11.784-17.421-20.899-21.978c-9.461-4.731-19.972-6.865-30.343-8.951c-8.458-1.702-16.571-2.261-24.866-4.239
					c-14.337-3.419-39.4-8.216-41.434-26.548"/>
			</g>
			<g>
				<path style="fill:#305569;" d="M-7.872,289.202c-3.606-3.801-7.621-7.24-12.118-9.929c-2.258-1.316-4.585-2.529-7.032-3.448
					c-0.601-0.256-1.214-0.479-1.837-0.675c-0.621-0.2-1.233-0.428-1.861-0.606c-1.265-0.32-2.516-0.692-3.803-0.908
					c-5.103-1.043-10.386-1.155-15.514-0.572c-5.124,0.682-10.036,2.495-14.715,4.732c-2.345,1.122-4.64,2.349-6.923,3.631
					l-6.865,3.844c-4.55,2.594-9.056,5.248-13.438,8.075c-4.361,2.855-8.616,5.86-12.592,9.182
					c-3.955,3.334-7.692,6.937-10.775,11.032l-1.157,1.534l-1.028,1.614l-1.024,1.618l-0.86,1.702
					c-1.229,2.235-2.031,4.667-2.696,7.139c-1.292,4.969-1.65,10.187-1.738,15.401c-0.079,10.463,0.262,20.989,1.92,31.331
					c1.655,10.311,4.717,20.526,10.192,29.424c5.382,8.942,13.489,16.083,22.86,20.533c9.352,4.59,19.608,6.983,29.911,8.415
					c5.168,0.688,10.375,1.125,15.595,1.401c5.216,0.275,10.433,0.407,15.627,0.193c10.348-0.425,20.778-2.043,30.029-6.409
					c4.598-2.185,8.849-5.06,12.416-8.646c3.537-3.627,6.37-7.846,8.177-12.584c0.935-2.346,1.67-4.785,2.176-7.283
					c0.519-2.494,0.888-5.031,1.056-7.593c0.184-2.56,0.245-5.137,0.15-7.718c-0.076-2.58-0.245-5.164-0.532-7.741
					c-1.139-10.317-3.558-20.52-6.448-30.583c-1.466-5.029-2.998-10.054-4.691-15.009c-1.706-4.953-3.592-9.846-5.717-14.637
					C4.638,306.093-0.77,296.941-7.872,289.202z M-7.653,288.997c3.599,3.847,6.758,8.087,9.606,12.513
					c2.876,4.415,5.357,9.072,7.676,13.802c4.632,9.477,8.206,19.429,11.539,29.414c3.3,10.005,6.12,20.258,7.431,30.833
					c0.677,5.278,0.935,10.642,0.58,16.006c-0.155,2.683-0.521,5.362-1.051,8.015c-0.517,2.656-1.281,5.276-2.27,7.817
					c-1.912,5.111-5.077,9.777-8.881,13.663c-3.855,3.875-8.444,6.969-13.359,9.226c-4.915,2.274-10.119,3.782-15.374,4.772
					c-5.26,0.989-10.582,1.467-15.891,1.628c-5.31,0.156-10.612,0.003-15.884-0.372c-5.268-0.368-10.534-0.9-15.772-1.687
					c-10.455-1.587-20.863-4.392-30.311-9.304c-2.377-1.183-4.642-2.607-6.852-4.083c-2.166-1.547-4.268-3.186-6.205-5.01
					c-3.875-3.642-7.228-7.82-9.965-12.358c-2.741-4.538-4.875-9.42-6.51-14.441c-1.643-5.021-2.873-10.17-3.74-15.372
					c-0.9-5.198-1.477-10.445-1.886-15.699c-0.402-5.258-0.656-10.512-0.745-15.794c-0.057-5.278,0.155-10.64,1.37-15.896
					c0.625-2.611,1.417-5.233,2.655-7.646l0.871-1.838l1.035-1.742l1.045-1.738l1.19-1.632c3.187-4.345,6.985-8.17,11.064-11.593
					c4.077-3.433,8.41-6.521,12.883-9.355c4.466-2.846,9.064-5.455,13.712-7.94c2.322-1.246,4.651-2.474,6.994-3.667
					c2.343-1.208,4.728-2.376,7.164-3.436c4.862-2.117,10.005-3.808,15.344-4.335c5.323-0.422,10.668-0.116,15.833,1.122
					c5.162,1.191,10.103,3.266,14.58,6.053c2.254,1.374,4.366,2.961,6.403,4.63C-11.35,285.243-9.465,287.087-7.653,288.997z"/>
			</g>
			<path style="fill:#E7AE5E;" d="M570.73,108.63c-6.461-3.576-18.754-5.94-23.462,1.728c-2.002,3.261-1.786,8.799-1.776,12.501
				c0.011,4.16,0.927,7.847,2.278,11.722c2.87,8.236,12.828,13.438,20.523,8.9c8.186-4.827,10.823-13.497,9.911-22.482
				C577.655,115.605,574.186,112.876,570.73,108.63z"/>
			<path style="fill:#E7AE5E;" d="M255.048,33.979c5.994,1.063,12.281-1.386,16.696-5.578c1.999-1.898,3.733-4.298,3.97-7.044
				c0.89-10.303-18.455-18.084-26.587-13.762C237.516,13.767,243.544,31.94,255.048,33.979z"/>
			<path style="fill:none;stroke:#305569;stroke-width:1.6369;stroke-linecap:round;stroke-miterlimit:10;" d="M186.214-24.144
				c1.99,11.579,7.752,22.112,13.426,32.399c2.337,4.238,4.698,8.51,7.857,12.176c12.31,14.289,36.823,15.578,50.564,2.66
				c2.735-2.572,5.036-5.561,7.461-8.427c15.4-18.205,36.304-31.691,59.238-38.219"/>
		</g>
	</g>
	<rect x="71.395" y="92.438" style="opacity:0.6;fill:#FFFFFF;" width="452.487" height="657.014"/>
	<g>
		<text transform="matrix(1 0 0 1 201.0651 165.1758)" style="fill:#305569; font-family:'Cinzel-SemiBold'; font-size:24.092px;">WE INVITE YOU</text>
		<text transform="matrix(1 0 0 1 204.7755 197.3862)" style="fill:#305569; font-family:'Cinzel-SemiBold'; font-size:24.092px;">TO CELEBRATE</text>
		
			<text transform="matrix(1 0 0 1 184.9834 708.3496)" style="fill:#305569; font-family:'Cinzel-SemiBold'; font-size:14.6955px; letter-spacing:1;">LOREM IPSUM DOLOR SIT</text>
		<text transform="matrix(1 0 0 1 149.6113 503.2473)" style="fill:#305569; font-family:'Cinzel-SemiBold'; font-size:30.1544px;">September, 21, 2022</text>
		<g>
			<text transform="matrix(1 0 0 1 150.6773 546.34)"><tspan x="0" y="0" style="fill:#305569; font-family:'Cinzel-SemiBold'; font-size:15px;">21</tspan><tspan x="14.58" y="0" style="fill:#305569; font-family:'Cinzel-SemiBold'; font-size:16.5186px;">a st.mary street</tspan></text>
			<g>
				<text transform="matrix(1 0 0 1 321.994 546.34)"><tspan x="0" y="0" style="fill:#305569; font-family:'Cinzel-SemiBold'; font-size:16.5186px;">start at</tspan><tspan x="73.854" y="0" style="fill:#305569; font-family:'Cinzel-SemiBold'; font-size:15px;"> 07</tspan><tspan x="95.064" y="0" style="fill:#305569; font-family:'Cinzel-SemiBold'; font-size:16.5186px;"> pm</tspan></text>
			</g>
		</g>
		<rect x="183.278" y="590.581" style="fill:none;" width="228.719" height="32.132"/>
		<text transform="matrix(1 0 0 1 191.0695 596.5804)"><tspan x="0" y="0" style="fill:#305569; font-family:'Cinzel-Regular'; font-size:10px;">Lorem ipsum dolor sit amet, consec</tspan><tspan x="209.342" y="0" style="fill:#305569; font-family:'Cinzel-Regular'; font-size:10px;">-</tspan><tspan x="14.654" y="12" style="fill:#305569; font-family:'Cinzel-Regular'; font-size:10px;">tetuer adipiscing elit, sed diam </tspan><tspan x="-2.15" y="24" style="fill:#305569; font-family:'Cinzel-Regular'; font-size:10px;">nonummy nibh euismod tincidunt ut </tspan></text>
		<g>
			<g>
				<g>
					
						<text transform="matrix(1 0 0 1 189.4755 415.2905)" style="fill:#305569; font-family:'GreatVibes-Regular'; font-size:107.9996px;">birthday</text>
				</g>
				
					<text transform="matrix(1 0 0 1 113.7812 339.837)" style="fill:#305569; font-family:'GreatVibes-Regular'; font-size:115.1755px;">Jessica</text>
			</g>
			<path style="fill:#305569;" d="M457.717,396.312c1.837-3.825,3.81-7.598,6.094-11.203c2.29-3.574,4.88-7.107,8.368-9.75
				c3.462-2.588,7.642-4.357,12.033-4.48c2.184-0.049,4.383,0.359,6.397,1.229c1.989,0.917,3.776,2.255,5.167,3.927
				c2.825,3.284,4.237,7.834,3.395,12.113c-0.812,4.272-3.674,7.984-7.384,10.103c-1.876,1.026-3.969,1.706-6.123,1.74
				c-1.07,0.006-2.172-0.169-3.134-0.681c-0.97-0.493-1.747-1.306-2.284-2.231c-1.09-1.86-1.206-4.213-0.38-6.174
				c0.797-1.979,2.31-3.599,4.079-4.734c-1.75,1.166-3.225,2.809-3.975,4.775c-0.78,1.95-0.616,4.24,0.469,6.02
				c0.534,0.884,1.292,1.647,2.217,2.095c0.918,0.469,1.97,0.618,3.001,0.594c2.079-0.068,4.109-0.767,5.905-1.792
				c3.561-2.116,6.251-5.764,6.946-9.836c0.728-4.066-0.691-8.354-3.412-11.404c-1.337-1.553-3.037-2.771-4.891-3.588
				c-1.875-0.769-3.926-1.116-5.958-1.034c-4.089,0.184-8.02,1.92-11.249,4.427c-3.227,2.534-5.685,5.961-7.872,9.504
				c-2.179,3.563-4.068,7.314-5.825,11.124L457.717,396.312z"/>
			<g>
				
					<text transform="matrix(-1 0 0 -1 434.5049 215.8691)" style="fill:#305569; font-family:'GreatVibes-Regular'; font-size:115.1755px;"></text>
			</g>
			<g>
				
					<text transform="matrix(1 0 0 1 418.4829 339.837)" style="fill:#305569; font-family:'GreatVibes-Regular'; font-size:115.1755px;">s</text>
			</g>
		</g>
	</g>
</g>
</svg>
