<?xml version="1.0" encoding="utf-8"?>
<!-- Generator: Adobe Illustrator 27.5.0, SVG Export Plug-In . SVG Version: 6.00 Build 0)  -->
<svg version="1.1" id="PRINT" xmlns="http://www.w3.org/2000/svg" xmlns:xlink="http://www.w3.org/1999/xlink" x="0px" y="0px"
	 viewBox="0 0 595.28 841.89" style="enable-background:new 0 0 595.28 841.89;" xml:space="preserve">
<g>
	<rect x="-8.504" y="-8.504" style="fill:#FFFFFF;" width="612.288" height="858.898"/>
	<g>
		<g>
			<g>
				<text transform="matrix(1 0 0 1 52.5339 410.4803)" style="fill:#EB9B28; font-family:'Lato-Heavy'; font-size:17px;">Lorem ipsum</text>
			</g>
			<rect x="52.534" y="429.882" style="fill:none;" width="233.333" height="56.131"/>
			<text transform="matrix(1 0 0 1 52.5338 437.2514)"><tspan x="0" y="0" style="fill:#14212E; font-family:'Lato-Regular'; font-size:10px;">Lorem ipsum dolor sit amet, consectetuer adipiscing </tspan><tspan x="0" y="12" style="fill:#14212E; font-family:'Lato-Regular'; font-size:10px;">elit, sed diam nonummy nibh euismod tincidunt ut </tspan><tspan x="0" y="24" style="fill:#14212E; font-family:'Lato-Regular'; font-size:10px;">laoreet dolore magna aliquam erat volutpat. </tspan></text>
			<rect x="52.534" y="503.882" style="fill:none;" width="233.333" height="56.131"/>
			<text transform="matrix(1 0 0 1 52.5338 511.2514)"><tspan x="0" y="0" style="fill:#14212E; font-family:'Lato-Regular'; font-size:10px;">Lorem ipsum dolor sit amet, consectetuer adipiscing </tspan><tspan x="0" y="12" style="fill:#14212E; font-family:'Lato-Regular'; font-size:10px;">elit, sed diam nonummy nibh euismod tincidunt ut </tspan><tspan x="0" y="24" style="fill:#14212E; font-family:'Lato-Regular'; font-size:10px;">laoreet dolore magna aliquam erat volutpat. </tspan></text>
		</g>
		<g>
			<path style="fill:#EB9B28;" d="M368.548,394.605c-6.996-4.519-16.418-3.491-22.286,2.42c-6.755,6.804-6.828,17.301-0.992,24.182
				l-11.629,14.265c-1.144,1.403-0.934,3.467,0.469,4.611l0,0c1.403,1.144,3.467,0.934,4.611-0.469l11.629-14.265
				c7.411,4.054,16.883,2.396,22.414-4.388C379.429,412.786,377.666,400.494,368.548,394.605z M368.608,417.572
				c-4.367,5.357-12.25,6.159-17.606,1.792c-5.357-4.367-6.159-12.25-1.792-17.606c4.367-5.357,12.25-6.159,17.607-1.792
				C372.172,404.332,372.975,412.215,368.608,417.572z"/>
			<g>
				<g>
					<g>
						<g>
							<path style="fill:#EB9B28;" d="M365.604,487.027v-5.124h-3.836c-0.242-0.94-0.616-1.827-1.098-2.642l2.715-2.715
								l-3.623-3.623l-2.715,2.715c-0.815-0.482-1.702-0.856-2.642-1.098v-3.836h-5.124v3.836c-0.94,0.242-1.827,0.616-2.642,1.098
								l-2.715-2.715l-3.623,3.623l2.715,2.715c-0.482,0.815-0.856,1.702-1.098,2.642h-3.836v5.124h3.836
								c0.242,0.94,0.616,1.827,1.098,2.642l-2.715,2.715l3.623,3.623l2.715-2.715c0.815,0.482,1.702,0.856,2.642,1.098v3.836h5.124
								v-3.836c0.94-0.242,1.827-0.616,2.642-1.098l2.715,2.715l3.623-3.623l-2.715-2.715c0.482-0.815,0.856-1.702,1.098-2.642
								H365.604z M351.844,490.394c-3.274,0-5.929-2.654-5.929-5.929c0-3.275,2.654-5.929,5.929-5.929s5.929,2.654,5.929,5.929
								C357.772,487.74,355.118,490.394,351.844,490.394z"/>
						</g>
					</g>
					<g>
						<g>
							<g>
								<path style="fill:#EB9B28;" d="M381.954,502.022l-1.798-3.441l-2.577,1.346c-0.492-0.546-1.055-1.011-1.664-1.389
									l0.87-2.776l-3.705-1.162l-0.87,2.776c-0.717-0.037-1.443,0.023-2.16,0.19l-1.346-2.576l-3.441,1.798l1.346,2.576
									c-0.546,0.492-1.011,1.055-1.389,1.664l-2.776-0.87l-1.162,3.705l2.776,0.87c-0.037,0.717,0.023,1.443,0.19,2.16
									l-2.576,1.346l1.798,3.441l2.576-1.346c0.492,0.547,1.055,1.011,1.664,1.389l-0.87,2.776l3.705,1.162l0.87-2.776
									c0.717,0.037,1.443-0.023,2.16-0.19l1.346,2.577l3.441-1.798l-1.347-2.576c0.547-0.492,1.011-1.055,1.389-1.664l2.776,0.87
									l1.162-3.705l-2.776-0.87c0.037-0.717-0.023-1.443-0.19-2.16L381.954,502.022z M373.894,509.113
									c-2.199,1.149-4.914,0.298-6.063-1.901c-1.149-2.199-0.298-4.914,1.901-6.063c2.199-1.149,4.914-0.298,6.063,1.901
									C376.944,505.249,376.093,507.964,373.894,509.113z"/>
							</g>
						</g>
						<g>
							<g>
								<path style="fill:#EB9B28;" d="M342.016,502.022l-1.798-3.441l-2.577,1.346c-0.492-0.546-1.055-1.011-1.664-1.389
									l0.871-2.776l-3.705-1.162l-0.871,2.776c-0.717-0.037-1.443,0.023-2.16,0.19l-1.346-2.576l-3.441,1.798l1.346,2.576
									c-0.546,0.492-1.011,1.055-1.389,1.664l-2.776-0.87l-1.162,3.705l2.776,0.87c-0.037,0.717,0.023,1.443,0.19,2.16
									l-2.576,1.346l1.798,3.441l2.576-1.346c0.492,0.547,1.055,1.011,1.664,1.389l-0.871,2.776l3.705,1.162l0.871-2.776
									c0.717,0.037,1.443-0.023,2.16-0.19l1.346,2.577l3.441-1.798l-1.346-2.576c0.546-0.492,1.011-1.055,1.389-1.664l2.776,0.87
									l1.162-3.705l-2.776-0.87c0.037-0.717-0.023-1.443-0.19-2.16L342.016,502.022z M333.956,509.113
									c-2.199,1.149-4.914,0.298-6.063-1.901c-1.149-2.199-0.298-4.914,1.901-6.063c2.199-1.149,4.914-0.298,6.063,1.901
									C337.006,505.249,336.155,507.964,333.956,509.113z"/>
							</g>
						</g>
					</g>
				</g>
			</g>
			<polygon style="fill:#EB9B28;" points="368.573,599.109 368.573,554.11 359.274,554.11 359.274,599.109 355.326,599.109 
				355.326,564.11 346.028,564.11 346.028,599.109 342.08,599.109 342.08,576.11 332.781,576.11 332.781,599.109 326.011,599.109 
				326.011,546.109 324.011,546.109 324.011,601.109 379.677,601.109 379.677,599.109 			"/>
			<rect x="392.76" y="408.126" style="fill:none;" width="155.582" height="34.028"/>
			<text transform="matrix(1 0 0 1 392.7599 413.7648)"><tspan x="0" y="0" style="fill:#14212E; font-family:'Lato-Regular'; font-size:7.6508px;">Lorem ipsum dolor sit amet, consectetuer </tspan><tspan x="0" y="9.181" style="fill:#14212E; font-family:'Lato-Regular'; font-size:7.6508px;">adipiscing elit, sed diam nonummy nibh </tspan><tspan x="0" y="18.362" style="fill:#14212E; font-family:'Lato-Regular'; font-size:7.6508px;">euismod tincidunt ut laoreet dolore magna </tspan><tspan x="0" y="27.543" style="fill:#14212E; font-family:'Lato-Regular'; font-size:7.6508px;">aliquam erat volutpat. </tspan></text>
			<text transform="matrix(1 0 0 1 392.7589 398.7646)" style="fill:#A03594; font-family:'Lato-Heavy'; font-size:10px;">Lorem ipsum</text>
			<rect x="392.76" y="485.892" style="fill:none;" width="155.582" height="34.028"/>
			<text transform="matrix(1 0 0 1 392.7599 491.5305)"><tspan x="0" y="0" style="fill:#14212E; font-family:'Lato-Regular'; font-size:7.6508px;">Lorem ipsum dolor sit amet, consectetuer </tspan><tspan x="0" y="9.181" style="fill:#14212E; font-family:'Lato-Regular'; font-size:7.6508px;">adipiscing elit, sed diam nonummy nibh </tspan><tspan x="0" y="18.362" style="fill:#14212E; font-family:'Lato-Regular'; font-size:7.6508px;">euismod tincidunt ut laoreet dolore magna </tspan><tspan x="0" y="27.543" style="fill:#14212E; font-family:'Lato-Regular'; font-size:7.6508px;">aliquam erat volutpat. </tspan></text>
			<text transform="matrix(1 0 0 1 392.7589 476.5314)" style="fill:#A03594; font-family:'Lato-Heavy'; font-size:10px;">Lorem ipsum</text>
			<rect x="392.76" y="563.892" style="fill:none;" width="155.582" height="34.028"/>
			<text transform="matrix(1 0 0 1 392.7599 569.5309)"><tspan x="0" y="0" style="fill:#14212E; font-family:'Lato-Regular'; font-size:7.6508px;">Lorem ipsum dolor sit amet, consectetuer </tspan><tspan x="0" y="9.181" style="fill:#14212E; font-family:'Lato-Regular'; font-size:7.6508px;">adipiscing elit, sed diam nonummy nibh </tspan><tspan x="0" y="18.362" style="fill:#14212E; font-family:'Lato-Regular'; font-size:7.6508px;">euismod tincidunt ut laoreet dolore magna </tspan><tspan x="0" y="27.543" style="fill:#14212E; font-family:'Lato-Regular'; font-size:7.6508px;">aliquam erat volutpat. </tspan></text>
			<text transform="matrix(1 0 0 1 392.7589 554.5317)" style="fill:#A03594; font-family:'Lato-Heavy'; font-size:10px;">Lorem ipsum</text>
		</g>
	</g>
	<g>
		<rect x="48.381" y="373.565" style="fill:#A03594;" width="498.519" height="1"/>
	</g>
	<g>
		<g>
			<g>
				<text transform="matrix(1 0 0 1 64.0733 245.3503)" style="fill:#EB9B28; font-family:'Lato-Regular'; font-size:34.6768px;">HEADLINE</text>
			</g>
			<text transform="matrix(1 0 0 1 64.0743 295.6379)" style="fill:#14212E; font-family:'Lato-Black'; font-size:48.381px;">BUSINESS</text>
			<text transform="matrix(1 0 0 1 64.0743 345.9231)" style="fill:#A03594; font-family:'Lato-Medium'; font-size:48.381px;">FLYER</text>
		</g>
		<text transform="matrix(1 0 0 1 395.0406 305.15)" style="fill:#A03594; font-family:'Lato-Heavy'; font-size:58.6934px;">2019</text>
		<g>
			<g>
				<g>
					<rect x="341.132" y="211.505" style="fill:#EB9B28;" width="1" height="149.039"/>
				</g>
			</g>
		</g>
	</g>
	<g>
		<path style="fill:#C7C7C6;" d="M155.598,0L-8.504,49.259v135.87c32.572-53.451,83.753-94.023,164.102-94.023
			C391.086,91.107,603.784,265,603.784,265l-55.442-91.397L155.598,0z"/>
		<path style="fill:#EB9B28;" d="M603.784,265c0,0-122.977-125.931-326.784-186C87,23-8.504,111.51-8.504,111.51V-8.504l612.288,0
			V265z"/>
		<path style="fill:#A03594;" d="M30.168-8.504C129.806-4.942,401.673,27.543,603.784,265V-8.504H30.168z"/>
		<path style="fill:#2FB0A7;" d="M603.784,130.969c0,0-156.784-135.469-476.17-139.473h476.17V130.969z"/>
		<path style="fill:#14212E;" d="M603.784,130.969c0,0-81.284-99.847-214.784-139.473h214.784V130.969z"/>
		<linearGradient id="SVGID_1_" gradientUnits="userSpaceOnUse" x1="210.6341" y1="56.2176" x2="182.6342" y2="156.2175">
			<stop  offset="0" style="stop-color:#C67D2A"/>
			<stop  offset="1" style="stop-color:#EB9B28"/>
		</linearGradient>
		<path style="fill:url(#SVGID_1_);" d="M-8.504,31.122v80.388C-8.504,111.51,87,23,277,79
			c51.378,15.143,97.612,34.473,138.041,54.914c0.001-0.001,0.002-0.001,0.003-0.001C258.333,40.667,79.114,31.177-8.504,31.122z"/>
		
			<linearGradient id="SVGID_00000131360296212678033930000007451205374115370903_" gradientUnits="userSpaceOnUse" x1="310.379" y1="144.0027" x2="367.0455" y2="8.6698">
			<stop  offset="0" style="stop-color:#A03594"/>
			<stop  offset="1" style="stop-color:#73246A"/>
		</linearGradient>
		<path style="fill:url(#SVGID_00000131360296212678033930000007451205374115370903_);" d="M603.784,265v-93.904
			C374.273,19.786,197.475-5.164,126.747-8.504h-33.61l-0.001,0l0,0H30.168C129.806-4.942,401.673,27.543,603.784,265z"/>
	</g>
	<g>
		<path style="fill:#C7C7C6;" d="M439.682,841.89l164.101-49.259V656.76c-32.572,53.451-83.753,94.023-164.101,94.023
			C204.194,750.783-8.504,576.89-8.504,576.89l55.442,91.397L439.682,841.89z"/>
		<path style="fill:#EB9B28;" d="M-8.504,576.89c0,0,122.977,125.93,326.784,186c190,56,285.504-32.51,285.504-32.51v120.014H-8.504
			V576.89z"/>
		<path style="fill:#A03594;" d="M565.112,850.394c-99.638-3.562-371.505-36.047-573.616-273.504v273.504H565.112z"/>
		<path style="fill:#2FB0A7;" d="M-8.504,710.921c0,0,156.784,135.469,476.171,139.473H-8.504V710.921z"/>
		<path style="fill:#14212E;" d="M-8.504,710.921c0,0,81.284,99.847,214.784,139.473H-8.504V710.921z"/>
		
			<linearGradient id="SVGID_00000132770069512486919720000016407096423611796388_" gradientUnits="userSpaceOnUse" x1="210.6341" y1="607.8588" x2="182.6342" y2="707.8587" gradientTransform="matrix(-1 0 0 -1 595.28 1393.5311)">
			<stop  offset="0" style="stop-color:#C67D2A"/>
			<stop  offset="1" style="stop-color:#EB9B28"/>
		</linearGradient>
		<path style="fill:url(#SVGID_00000132770069512486919720000016407096423611796388_);" d="M603.784,810.768V730.38
			c0,0-95.504,88.51-285.504,32.51c-51.378-15.143-97.612-34.473-138.041-54.914c-0.001,0-0.002,0.001-0.003,0.001
			C336.947,801.223,516.166,810.713,603.784,810.768z"/>
		
			<linearGradient id="SVGID_00000119838597906344383760000011649400655818193035_" gradientUnits="userSpaceOnUse" x1="310.379" y1="695.644" x2="367.0456" y2="560.311" gradientTransform="matrix(-1 0 0 -1 595.28 1393.5311)">
			<stop  offset="0" style="stop-color:#A03594"/>
			<stop  offset="1" style="stop-color:#73246A"/>
		</linearGradient>
		<path style="fill:url(#SVGID_00000119838597906344383760000011649400655818193035_);" d="M-8.504,576.89v93.904
			c229.511,151.31,406.309,176.26,477.037,179.6h33.61h0.001h0h62.968C465.474,846.832,193.607,814.346-8.504,576.89z"/>
	</g>
	<g>
		<g>
			
				<ellipse transform="matrix(0.7071 -0.7071 0.7071 0.7071 -74.4334 107.9877)" style="fill:#EB9B28;" cx="93.136" cy="143.843" rx="18.848" ry="18.848"/>
			
				<ellipse transform="matrix(0.7399 -0.6727 0.6727 0.7399 -65.6396 117.9024)" style="fill:#A03594;" cx="119.663" cy="143.843" rx="18.848" ry="18.848"/>
			<path style="fill:#BC496B;" d="M100.815,143.843c0,5.237,2.137,9.973,5.585,13.389c3.448-3.416,5.585-8.152,5.585-13.389
				c0-5.237-2.137-9.973-5.585-13.389C102.952,133.87,100.815,138.606,100.815,143.843z"/>
		</g>
		<text transform="matrix(1 0 0 1 72.0161 173.3227)" style="fill:#A03594; font-family:'Lato-Heavy'; font-size:8.3771px;">LOGO COMPANY</text>
		<g>
			<text transform="matrix(1 0 0 1 77.6621 184.0268)" style="fill:#EB9B28; font-family:'Lato-Heavy'; font-size:8.3771px;">SLOGAN HERE</text>
		</g>
	</g>
	<g>
		<g>
			<g>
				<polygon style="fill:#14212E;" points="533.116,687.956 526.776,687.956 526.776,691.812 533.116,691.812 535.979,691.812 
					537.323,691.812 537.323,674.107 533.116,674.107 				"/>
				<polygon style="fill:#14212E;" points="501.795,655.584 501.795,651.376 501.795,642.086 501.795,637.878 497.588,637.878 
					487.888,637.878 483.681,637.878 483.681,642.086 483.681,648.162 487.888,648.162 487.888,642.086 493.731,642.086 
					493.731,645.942 497.588,645.942 497.588,651.376 483.681,651.376 483.681,655.584 497.588,655.584 				"/>
				<rect x="505.36" y="687.605" style="fill:#14212E;" width="18.114" height="4.207"/>
				<rect x="489.875" y="645.942" style="fill:#14212E;" width="3.857" height="3.857"/>
				<rect x="489.875" y="679.833" style="fill:#14212E;" width="3.857" height="3.857"/>
				<polygon style="fill:#14212E;" points="497.588,674.078 483.856,674.078 483.856,677.934 497.588,677.934 497.588,687.605 
					487.888,687.605 487.888,679.424 483.681,679.424 483.681,687.605 483.681,689.709 483.681,691.812 497.588,691.812 
					501.795,691.812 501.795,687.605 501.795,674.107 497.588,674.107 				"/>
				<rect x="532.122" y="645.124" style="fill:#14212E;" width="3.857" height="3.857"/>
				<polygon style="fill:#14212E;" points="509.333,653.305 516.082,653.305 516.082,649.448 509.333,649.448 509.333,645.767 
					516.345,645.767 516.345,641.91 516.345,638.054 512.489,638.054 512.489,641.91 509.333,641.91 509.333,638.054 
					505.477,638.054 505.477,641.91 509.246,641.91 509.246,645.767 505.477,645.767 505.477,649.623 509.333,649.623 
					509.333,651.727 505.477,651.727 505.477,655.584 509.333,655.584 				"/>
				<polygon style="fill:#14212E;" points="504.863,674.078 504.863,677.934 508.72,677.934 508.72,681.353 512.313,681.353 
					512.313,684.859 516.521,684.859 516.521,683.69 520.202,683.69 520.202,679.833 516.521,679.833 516.521,677.029 
					529.843,677.029 529.843,673.172 516.521,673.172 516.521,667.153 512.313,667.153 512.313,677.496 508.72,677.496 
					508.72,674.078 				"/>
				<rect x="525.958" y="677.934" style="fill:#14212E;" width="3.857" height="3.857"/>
				<polygon style="fill:#14212E;" points="530.194,663.297 537.294,663.297 537.294,659.44 530.194,659.44 530.194,662.377 
					522.539,662.377 522.539,659.44 512.313,659.44 512.313,662.377 508.72,662.377 508.457,662.377 504.863,662.377 
					504.863,659.44 501.007,659.44 501.007,663.297 504.863,663.297 504.863,666.102 499.516,666.102 499.516,663.297 
					498.114,663.297 498.114,659.44 487.888,659.44 487.888,663.297 495.66,663.297 495.66,667.153 499.516,667.153 
					499.516,669.958 508.72,669.958 508.72,666.233 512.313,666.233 512.313,663.297 520.991,663.297 520.991,666.233 
					528.12,666.233 528.12,669.958 537.323,669.958 537.323,666.102 530.194,666.102 				"/>
				<rect x="484.032" y="663.297" style="fill:#14212E;" width="3.857" height="6.661"/>
				<polygon style="fill:#14212E;" points="537.323,641.735 537.323,637.878 523.416,637.878 521.341,637.878 519.208,637.878 
					519.208,651.376 519.208,655.584 523.416,655.584 537.323,655.584 537.323,651.376 523.416,651.376 523.416,648.981 
					528.266,648.981 528.266,645.124 523.416,645.124 523.416,641.735 528.266,641.735 528.266,645.124 532.122,645.124 
					532.122,641.735 				"/>
			</g>
		</g>
		<g>
			<text transform="matrix(1 0 0 1 337.6584 649.0058)" style="fill:#14212E; font-family:'Lato-Medium'; font-size:10.7692px;">000-5131664-33</text>
			<path style="fill:#EB9B28;" d="M440.114,638.04c-3.905,0-7.07,3.165-7.07,7.07c0,1.288,0.346,2.494,0.948,3.534l-0.948,3.536
				l3.536-0.948c1.04,0.602,2.246,0.948,3.534,0.948c3.905,0,7.07-3.166,7.07-7.07S444.019,638.04,440.114,638.04z M443.881,648.402
				c-0.03,0.108-0.074,0.216-0.132,0.323c-0.412,0.817-1.654,1.218-2.615,0.699c0,0.001-0.001,0.001-0.001,0.002
				c-2.546-1.374-4.251-3.714-4.781-6.557c0,0,0.001,0,0.002-0.001c-0.004-0.024-0.01-0.047-0.014-0.072
				c-0.154-1.047,0.615-2.072,1.486-2.206c0.118-0.022,0.233-0.029,0.344-0.025c0.4,0.02,0.678,0.325,0.718,0.711
				c0.046,0.469,0.132,0.923,0.253,1.359c0.099,0.361-0.044,0.8-0.392,1.071c-0.098,0.075-0.203,0.142-0.316,0.199
				c-0.115,0.058-0.232,0.101-0.349,0.131c0.523,1.328,1.364,2.481,2.469,3.385c0.065-0.105,0.143-0.206,0.234-0.298
				c0.088-0.089,0.183-0.168,0.283-0.237c0.364-0.247,0.825-0.249,1.138-0.044c0.379,0.249,0.785,0.469,1.217,0.656
				C443.781,647.655,443.986,648.014,443.881,648.402z"/>
			<g>
				<path style="fill:#EB9B28;" d="M437.072,663.894l-4.359,4.712c-0.063-0.149-0.102-0.314-0.102-0.486v-6.869
					c0-0.243,0.078-0.478,0.196-0.682L437.072,663.894z"/>
				<path style="fill:#EB9B28;" d="M447.618,661.252v6.869c0,0.172-0.039,0.337-0.102,0.486l-4.359-4.712l4.265-3.324
					C447.539,660.773,447.618,661.009,447.618,661.252z"/>
				<path style="fill:#EB9B28;" d="M442.411,664.474l4.469,4.822c-0.18,0.094-0.376,0.149-0.588,0.149h-12.357
					c-0.212,0-0.408-0.055-0.588-0.149l4.469-4.822l2.297,1.788L442.411,664.474z"/>
				<path style="fill:#EB9B28;" d="M446.645,659.982l-6.531,5.089l-6.531-5.089c0.118-0.031,0.235-0.055,0.353-0.055h12.357
					C446.41,659.927,446.528,659.95,446.645,659.982z"/>
			</g>
			<text transform="matrix(1 0 0 1 320.7932 666.9599)" style="fill:#14212E; font-family:'Lato-Medium'; font-size:10.7692px;">company@email.com</text>
			<text transform="matrix(1 0 0 1 327.5666 687.5273)" style="fill:#14212E; font-family:'Lato-Medium'; font-size:10.7692px;">www.company.com</text>
			<path style="fill:#EB9B28;" d="M447.719,684.045c0-1.697-0.565-3.26-1.508-4.527l0.023-0.014l-0.359-0.417
				c-0.035-0.041-0.076-0.077-0.112-0.117c-0.127-0.141-0.257-0.279-0.394-0.41c-0.063-0.06-0.128-0.117-0.193-0.176
				c-0.13-0.116-0.263-0.229-0.401-0.336c-0.072-0.056-0.145-0.11-0.219-0.164c-0.139-0.101-0.282-0.196-0.429-0.288
				c-0.075-0.047-0.151-0.094-0.227-0.138c-0.154-0.089-0.312-0.17-0.472-0.248c-0.074-0.036-0.146-0.073-0.221-0.107
				c-0.171-0.076-0.346-0.143-0.523-0.207c-0.07-0.025-0.138-0.053-0.208-0.076c-0.187-0.061-0.379-0.112-0.572-0.158
				c-0.065-0.016-0.128-0.035-0.192-0.05c-0.203-0.044-0.41-0.075-0.619-0.102c-0.057-0.008-0.114-0.02-0.171-0.026
				c-0.265-0.028-0.533-0.044-0.806-0.044c-0.272,0-0.541,0.016-0.806,0.044c-0.058,0.006-0.114,0.019-0.171,0.026
				c-0.209,0.027-0.416,0.058-0.62,0.102c-0.065,0.014-0.127,0.034-0.191,0.049c-0.194,0.047-0.385,0.097-0.573,0.159
				c-0.07,0.023-0.138,0.051-0.207,0.076c-0.178,0.064-0.354,0.131-0.525,0.208c-0.074,0.033-0.146,0.07-0.219,0.106
				c-0.162,0.079-0.321,0.161-0.476,0.25c-0.076,0.044-0.149,0.09-0.224,0.136c-0.148,0.092-0.293,0.189-0.434,0.291
				c-0.072,0.052-0.144,0.105-0.214,0.16c-0.14,0.109-0.275,0.223-0.407,0.342c-0.063,0.056-0.126,0.111-0.186,0.169
				c-0.141,0.135-0.274,0.276-0.405,0.421c-0.034,0.037-0.071,0.07-0.104,0.108l-0.098,0.114c-0.004,0.005-0.008,0.009-0.012,0.014
				l-0.25,0.29l0.022,0.014c-0.943,1.267-1.509,2.83-1.509,4.527c0,1.697,0.565,3.26,1.509,4.527l-0.022,0.014l0.25,0.29
				c0.004,0.005,0.008,0.009,0.012,0.014l0.098,0.113c0.033,0.038,0.07,0.071,0.104,0.108c0.13,0.145,0.264,0.287,0.405,0.421
				c0.061,0.058,0.124,0.113,0.186,0.169c0.132,0.118,0.267,0.233,0.407,0.342c0.071,0.055,0.142,0.108,0.214,0.16
				c0.141,0.102,0.285,0.199,0.434,0.291c0.074,0.046,0.148,0.092,0.224,0.136c0.155,0.089,0.314,0.172,0.476,0.25
				c0.073,0.035,0.145,0.073,0.219,0.106c0.171,0.077,0.347,0.144,0.525,0.208c0.069,0.025,0.137,0.053,0.207,0.076
				c0.188,0.061,0.379,0.112,0.573,0.159c0.064,0.016,0.127,0.035,0.191,0.049c0.203,0.044,0.411,0.075,0.62,0.102
				c0.057,0.008,0.113,0.02,0.171,0.026c0.265,0.028,0.534,0.044,0.806,0.044c0.272,0,0.541-0.016,0.806-0.044
				c0.058-0.006,0.114-0.019,0.171-0.026c0.209-0.027,0.416-0.058,0.619-0.102c0.065-0.014,0.128-0.034,0.192-0.05
				c0.193-0.047,0.385-0.097,0.572-0.158c0.07-0.023,0.139-0.051,0.208-0.076c0.177-0.064,0.352-0.131,0.523-0.207
				c0.075-0.033,0.148-0.071,0.221-0.107c0.161-0.078,0.319-0.16,0.472-0.249c0.077-0.044,0.152-0.091,0.227-0.138
				c0.146-0.091,0.289-0.187,0.429-0.288c0.074-0.053,0.147-0.108,0.219-0.164c0.138-0.107,0.271-0.22,0.401-0.336
				c0.065-0.058,0.13-0.115,0.193-0.176c0.137-0.131,0.267-0.269,0.394-0.41c0.036-0.04,0.077-0.076,0.112-0.117l0.359-0.417
				l-0.023-0.014C447.154,687.305,447.719,685.742,447.719,684.045z M444.691,688.878c-0.129,0.122-0.26,0.241-0.397,0.351
				c-0.039,0.031-0.08,0.059-0.119,0.089c-0.13,0.1-0.262,0.199-0.398,0.289c-0.044,0.029-0.09,0.054-0.134,0.082
				c-0.137,0.086-0.275,0.17-0.418,0.246c-0.046,0.024-0.094,0.045-0.141,0.068c-0.145,0.072-0.29,0.143-0.44,0.205
				c-0.049,0.02-0.1,0.036-0.15,0.055c-0.066,0.026-0.134,0.048-0.201,0.071c0.404-0.547,0.75-1.244,1.019-2.055
				c0.519,0.147,1.015,0.318,1.449,0.534C444.738,688.836,444.714,688.856,444.691,688.878z M437.587,690.209
				c-0.155-0.064-0.306-0.137-0.456-0.212c-0.041-0.021-0.084-0.038-0.124-0.06c-0.149-0.079-0.294-0.167-0.438-0.258
				c-0.037-0.024-0.077-0.045-0.113-0.069c-0.145-0.096-0.285-0.2-0.422-0.307c-0.031-0.024-0.064-0.046-0.095-0.071
				c-0.147-0.119-0.288-0.245-0.426-0.377c-0.015-0.014-0.031-0.027-0.045-0.041c0.434-0.216,0.93-0.387,1.449-0.534
				c0.269,0.811,0.615,1.508,1.019,2.054c-0.071-0.025-0.142-0.048-0.212-0.075C437.678,690.241,437.632,690.227,437.587,690.209z
				 M435.513,679.236c0.137-0.132,0.279-0.258,0.426-0.377c0.031-0.025,0.064-0.047,0.095-0.071
				c0.137-0.107,0.277-0.211,0.421-0.306c0.038-0.025,0.078-0.046,0.116-0.07c0.143-0.09,0.287-0.178,0.436-0.257
				c0.041-0.021,0.083-0.039,0.124-0.06c0.15-0.075,0.301-0.149,0.456-0.212c0.045-0.018,0.092-0.033,0.137-0.05
				c0.07-0.027,0.141-0.05,0.212-0.075c-0.404,0.547-0.75,1.244-1.019,2.054c-0.519-0.147-1.015-0.318-1.449-0.534
				C435.482,679.263,435.498,679.25,435.513,679.236z M442.644,677.882c0.15,0.062,0.295,0.132,0.44,0.205
				c0.047,0.023,0.095,0.044,0.141,0.068c0.142,0.075,0.279,0.159,0.416,0.245c0.045,0.028,0.092,0.054,0.136,0.083
				c0.136,0.09,0.267,0.189,0.397,0.289c0.039,0.031,0.081,0.058,0.12,0.09c0.137,0.111,0.268,0.229,0.397,0.351
				c0.023,0.022,0.048,0.042,0.07,0.064c-0.434,0.216-0.93,0.386-1.449,0.534c-0.269-0.811-0.615-1.508-1.019-2.054
				c0.067,0.023,0.135,0.046,0.201,0.071C442.544,677.846,442.595,677.862,442.644,677.882z M443.932,683.575
				c-0.03-1.023-0.157-1.983-0.364-2.85c0.669-0.189,1.285-0.432,1.83-0.726c0.772,1.006,1.263,2.236,1.358,3.576H443.932z
				 M437.236,683.575c0.029-0.97,0.147-1.854,0.33-2.632c0.81,0.16,1.669,0.248,2.548,0.248s1.738-0.088,2.548-0.248
				c0.183,0.778,0.301,1.662,0.33,2.632H437.236z M442.992,684.515c-0.029,0.97-0.147,1.854-0.33,2.632
				c-0.81-0.16-1.669-0.248-2.548-0.248s-1.738,0.088-2.548,0.248c-0.183-0.778-0.301-1.662-0.33-2.632H442.992z M442.403,680.031
				c-0.727,0.138-1.496,0.219-2.289,0.219c-0.792,0-1.561-0.082-2.289-0.219c0.564-1.662,1.443-2.651,2.289-2.651
				S441.839,678.369,442.403,680.031z M436.661,680.725c-0.207,0.867-0.334,1.827-0.364,2.85h-2.824
				c0.094-1.34,0.585-2.57,1.358-3.576C435.375,680.292,435.992,680.536,436.661,680.725z M436.297,684.515
				c0.03,1.023,0.157,1.983,0.364,2.85c-0.669,0.189-1.286,0.432-1.831,0.726c-0.773-1.006-1.264-2.236-1.358-3.576H436.297z
				 M437.826,688.059c0.727-0.138,1.496-0.219,2.289-0.219c0.793,0,1.561,0.081,2.289,0.219c-0.564,1.662-1.443,2.65-2.289,2.65
				S438.389,689.722,437.826,688.059z M443.568,687.365c0.207-0.867,0.334-1.827,0.364-2.85h2.823
				c-0.094,1.34-0.585,2.57-1.358,3.576C444.853,687.798,444.237,687.554,443.568,687.365z"/>
		</g>
	</g>
</g>
</svg>
