<?xml version="1.0" encoding="utf-8"?>
<!-- Generator: Adobe Illustrator 27.5.0, SVG Export Plug-In . SVG Version: 6.00 Build 0)  -->
<svg version="1.1" id="PRINT" xmlns="http://www.w3.org/2000/svg" xmlns:xlink="http://www.w3.org/1999/xlink" x="0px" y="0px"
	 viewBox="0 0 592.441 839.055" style="enable-background:new 0 0 592.441 839.055;" xml:space="preserve">
<g>
	<rect x="-8.495" y="-0.183" style="fill:#FFFFFF;" width="609.436" height="847.742"/>
	<g>
		<g>
			<linearGradient id="SVGID_1_" gradientUnits="userSpaceOnUse" x1="400.8071" y1="326.0474" x2="543.5047" y2="326.0474">
				<stop  offset="1.100000e-07" style="stop-color:#FCB415"/>
				<stop  offset="0.9964" style="stop-color:#F78F1E"/>
			</linearGradient>
			<path style="fill:url(#SVGID_1_);" d="M532.362,341.891H400.807v-31.686h131.555c6.154,0,11.143,4.989,11.143,11.143v9.401
				C543.505,336.902,538.516,341.891,532.362,341.891z"/>
			
				<text transform="matrix(0.9396 0 0 1 411.4039 330.7902)" style="fill:#FFFFFF; font-family:'Roboto-Regular'; font-size:12.4778px;">LOREM IPSUM DOLOR</text>
			<path style="fill:#00425A;" d="M403.405,341.891h-20.87c-6.154,0-11.143-4.989-11.143-11.143v-9.401
				c0-6.154,4.989-11.143,11.143-11.143h20.87V341.891z"/>
			<g>
				<g>
					
						<line style="fill:none;stroke:#FFFFFF;stroke-width:1.8126;stroke-miterlimit:10;" x1="378.703" y1="326.047" x2="392.192" y2="326.047"/>
					<g>
						<polygon style="fill:#FFFFFF;" points="386.787,332.719 385.674,331.524 391.566,326.049 385.674,320.572 386.787,319.377 
							393.961,326.049 						"/>
					</g>
				</g>
			</g>
		</g>
	</g>
	<g>
		<g>
			
				<linearGradient id="SVGID_00000113324705531832074020000000989714628599198115_" gradientUnits="userSpaceOnUse" x1="398.8811" y1="612.5439" x2="543.5047" y2="612.5439">
				<stop  offset="1.100000e-07" style="stop-color:#FCB415"/>
				<stop  offset="0.9964" style="stop-color:#F78F1E"/>
			</linearGradient>
			<path style="fill:url(#SVGID_00000113324705531832074020000000989714628599198115_);" d="M532.362,628.387H398.881v-31.686
				h133.481c6.154,0,11.143,4.989,11.143,11.143v9.401C543.505,623.398,538.516,628.387,532.362,628.387z"/>
			<path style="fill:#00425A;" d="M403.405,628.387h-20.87c-6.154,0-11.143-4.989-11.143-11.143v-9.401
				c0-6.154,4.989-11.143,11.143-11.143h20.87V628.387z"/>
			<g>
				<g>
					
						<line style="fill:none;stroke:#FFFFFF;stroke-width:1.8126;stroke-miterlimit:10;" x1="378.703" y1="612.544" x2="392.192" y2="612.544"/>
					<g>
						<polygon style="fill:#FFFFFF;" points="386.787,619.216 385.674,618.021 391.566,612.546 385.674,607.068 386.787,605.874 
							393.961,612.546 						"/>
					</g>
				</g>
			</g>
		</g>
	</g>
	<g>
		<g>
			
				<linearGradient id="SVGID_00000077294782763573518720000012383412336705347003_" gradientUnits="userSpaceOnUse" x1="398.8811" y1="421.2069" x2="543.5047" y2="421.2069">
				<stop  offset="1.100000e-07" style="stop-color:#FCB415"/>
				<stop  offset="0.9964" style="stop-color:#F78F1E"/>
			</linearGradient>
			<path style="fill:url(#SVGID_00000077294782763573518720000012383412336705347003_);" d="M532.362,437.05H398.881v-31.686
				h133.481c6.154,0,11.143,4.989,11.143,11.143v9.401C543.505,432.061,538.516,437.05,532.362,437.05z"/>
			
				<text transform="matrix(0.9396 0 0 1 410.8785 425.9347)" style="fill:#FFFFFF; font-family:'Roboto-Regular'; font-size:12.4778px;">LOREM IPSUM DOLOR</text>
			<path style="fill:#00425A;" d="M403.405,437.05h-20.87c-6.154,0-11.143-4.989-11.143-11.143v-9.401
				c0-6.154,4.989-11.143,11.143-11.143h20.87V437.05z"/>
			<g>
				<g>
					
						<line style="fill:none;stroke:#FFFFFF;stroke-width:1.8126;stroke-miterlimit:10;" x1="378.703" y1="421.207" x2="392.192" y2="421.207"/>
					<g>
						<polygon style="fill:#FFFFFF;" points="386.787,427.879 385.674,426.684 391.566,421.208 385.674,415.732 386.787,414.537 
							393.961,421.208 						"/>
					</g>
				</g>
			</g>
		</g>
	</g>
	<g>
		<g>
			
				<linearGradient id="SVGID_00000156555901350255446630000013948872703161938854_" gradientUnits="userSpaceOnUse" x1="398.8811" y1="516.8754" x2="543.5047" y2="516.8754">
				<stop  offset="1.100000e-07" style="stop-color:#FCB415"/>
				<stop  offset="0.9964" style="stop-color:#F78F1E"/>
			</linearGradient>
			<path style="fill:url(#SVGID_00000156555901350255446630000013948872703161938854_);" d="M532.362,532.719H398.881v-31.686
				h133.481c6.154,0,11.143,4.989,11.143,11.143v9.401C543.505,527.73,538.516,532.719,532.362,532.719z"/>
			
				<text transform="matrix(0.9396 0 0 1 409.3013 521.5968)" style="fill:#FFFFFF; font-family:'Roboto-Regular'; font-size:12.4778px;">LOREM IPSUM DOLOR</text>
			
				<text transform="matrix(0.9396 0 0 1 408.7769 617.7794)" style="fill:#FFFFFF; font-family:'Roboto-Regular'; font-size:12.4778px;">LOREM IPSUM DOLOR</text>
			<path style="fill:#00425A;" d="M403.405,532.719h-20.87c-6.154,0-11.143-4.989-11.143-11.143v-9.401
				c0-6.154,4.989-11.143,11.143-11.143h20.87V532.719z"/>
			<g>
				<g>
					
						<line style="fill:none;stroke:#FFFFFF;stroke-width:1.8126;stroke-miterlimit:10;" x1="378.703" y1="516.875" x2="392.192" y2="516.875"/>
					<g>
						<polygon style="fill:#FFFFFF;" points="386.787,523.547 385.674,522.352 391.566,516.877 385.674,511.4 386.787,510.205 
							393.961,516.877 						"/>
					</g>
				</g>
			</g>
		</g>
	</g>
	<g>
		<text transform="matrix(1.0103 0 0 1 45.1446 433.4415)" style="fill:#00425A; font-family:'Roboto-Bold'; font-size:36.3761px;">HEADLINE</text>
	</g>
	<path style="fill:#FCB316;" d="M254.432,332.039c0,0,183.318-121.832,303.328-42.633c12.686,8.372,43.182,42.633,43.182,42.633
		v-112.82l-85.838-45.232l-125.86-8.319L285.503,266.53L254.432,332.039z"/>
	<g>
		<rect x="371.392" y="348.823" style="fill:none;" width="163.404" height="46.124"/>
		<text transform="matrix(0.9396 0 0 1 371.3922 356.6232)"><tspan x="0" y="0" style="fill:#C4C3C3; font-family:'Roboto-Light'; font-size:10.3982px;">Lorem</tspan><tspan x="29.387" y="0" style="fill:#C4C3C3; font-family:'Roboto-Light'; font-size:10.3982px;"> </tspan><tspan x="31.784" y="0" style="fill:#C4C3C3; font-family:'Roboto-Light'; font-size:10.3982px;">ipsum</tspan><tspan x="60.069" y="0" style="fill:#C4C3C3; font-family:'Roboto-Light'; font-size:10.3982px;"> </tspan><tspan x="62.468" y="0" style="fill:#C4C3C3; font-family:'Roboto-Light'; font-size:10.3982px;">dolor</tspan><tspan x="85.721" y="0" style="fill:#C4C3C3; font-family:'Roboto-Light'; font-size:10.3982px;"> </tspan><tspan x="88.119" y="0" style="fill:#C4C3C3; font-family:'Roboto-Light'; font-size:10.3982px;">sit</tspan><tspan x="99.055" y="0" style="fill:#C4C3C3; font-family:'Roboto-Light'; font-size:10.3982px;"> </tspan><tspan x="101.453" y="0" style="fill:#C4C3C3; font-family:'Roboto-Light'; font-size:10.3982px;">amet,</tspan><tspan x="126.94" y="0" style="fill:#C4C3C3; font-family:'Roboto-Light'; font-size:10.3982px;"> </tspan><tspan x="129.339" y="0" style="fill:#C4C3C3; font-family:'Roboto-Light'; font-size:10.3982px;">consecte</tspan><tspan x="170.937" y="0" style="fill:#C4C3C3; font-family:'Roboto-Light'; font-size:10.3982px;">-</tspan><tspan x="0" y="12.478" style="fill:#C4C3C3; font-family:'Roboto-Light'; font-size:10.3982px;">tuer</tspan><tspan x="17.923" y="12.478" style="fill:#C4C3C3; font-family:'Roboto-Light'; font-size:10.3982px; letter-spacing:1.064;"> </tspan><tspan x="21.916" y="12.478" style="fill:#C4C3C3; font-family:'Roboto-Light'; font-size:10.3982px;">adipiscing</tspan><tspan x="68.118" y="12.478" style="fill:#C4C3C3; font-family:'Roboto-Light'; font-size:10.3982px; letter-spacing:1.064;"> </tspan><tspan x="72.112" y="12.478" style="fill:#C4C3C3; font-family:'Roboto-Light'; font-size:10.3982px;">elit,</tspan><tspan x="87.475" y="12.478" style="fill:#C4C3C3; font-family:'Roboto-Light'; font-size:10.3982px; letter-spacing:1.064;"> </tspan><tspan x="91.468" y="12.478" style="fill:#C4C3C3; font-family:'Roboto-Light'; font-size:10.3982px;">sed</tspan><tspan x="107.882" y="12.478" style="fill:#C4C3C3; font-family:'Roboto-Light'; font-size:10.3982px; letter-spacing:1.064;"> </tspan><tspan x="111.877" y="12.478" style="fill:#C4C3C3; font-family:'Roboto-Light'; font-size:10.3982px;">diam</tspan><tspan x="134.769" y="12.478" style="fill:#C4C3C3; font-family:'Roboto-Light'; font-size:10.3982px; letter-spacing:1.064;"> </tspan><tspan x="138.763" y="12.478" style="fill:#C4C3C3; font-family:'Roboto-Light'; font-size:10.3982px;">nonum</tspan><tspan x="170.938" y="12.478" style="fill:#C4C3C3; font-family:'Roboto-Light'; font-size:10.3982px;">-</tspan><tspan x="0" y="24.956" style="fill:#C4C3C3; font-family:'Roboto-Light'; font-size:10.3982px;">my nibh euismod tincivolutpat. </tspan></text>
	</g>
	<g>
		<rect x="371.392" y="446.22" style="fill:none;" width="163.404" height="46.124"/>
		<text transform="matrix(0.9396 0 0 1 371.3922 454.0216)"><tspan x="0" y="0" style="fill:#C4C3C3; font-family:'Roboto-Light'; font-size:10.3982px;">Lorem</tspan><tspan x="29.387" y="0" style="fill:#C4C3C3; font-family:'Roboto-Light'; font-size:10.3982px;"> </tspan><tspan x="31.784" y="0" style="fill:#C4C3C3; font-family:'Roboto-Light'; font-size:10.3982px;">ipsum</tspan><tspan x="60.069" y="0" style="fill:#C4C3C3; font-family:'Roboto-Light'; font-size:10.3982px;"> </tspan><tspan x="62.468" y="0" style="fill:#C4C3C3; font-family:'Roboto-Light'; font-size:10.3982px;">dolor</tspan><tspan x="85.721" y="0" style="fill:#C4C3C3; font-family:'Roboto-Light'; font-size:10.3982px;"> </tspan><tspan x="88.119" y="0" style="fill:#C4C3C3; font-family:'Roboto-Light'; font-size:10.3982px;">sit</tspan><tspan x="99.055" y="0" style="fill:#C4C3C3; font-family:'Roboto-Light'; font-size:10.3982px;"> </tspan><tspan x="101.453" y="0" style="fill:#C4C3C3; font-family:'Roboto-Light'; font-size:10.3982px;">amet,</tspan><tspan x="126.94" y="0" style="fill:#C4C3C3; font-family:'Roboto-Light'; font-size:10.3982px;"> </tspan><tspan x="129.339" y="0" style="fill:#C4C3C3; font-family:'Roboto-Light'; font-size:10.3982px;">consecte</tspan><tspan x="170.937" y="0" style="fill:#C4C3C3; font-family:'Roboto-Light'; font-size:10.3982px;">-</tspan><tspan x="0" y="12.478" style="fill:#C4C3C3; font-family:'Roboto-Light'; font-size:10.3982px;">tuer</tspan><tspan x="17.923" y="12.478" style="fill:#C4C3C3; font-family:'Roboto-Light'; font-size:10.3982px; letter-spacing:1.064;"> </tspan><tspan x="21.916" y="12.478" style="fill:#C4C3C3; font-family:'Roboto-Light'; font-size:10.3982px;">adipiscing</tspan><tspan x="68.118" y="12.478" style="fill:#C4C3C3; font-family:'Roboto-Light'; font-size:10.3982px; letter-spacing:1.064;"> </tspan><tspan x="72.112" y="12.478" style="fill:#C4C3C3; font-family:'Roboto-Light'; font-size:10.3982px;">elit,</tspan><tspan x="87.475" y="12.478" style="fill:#C4C3C3; font-family:'Roboto-Light'; font-size:10.3982px; letter-spacing:1.064;"> </tspan><tspan x="91.468" y="12.478" style="fill:#C4C3C3; font-family:'Roboto-Light'; font-size:10.3982px;">sed</tspan><tspan x="107.882" y="12.478" style="fill:#C4C3C3; font-family:'Roboto-Light'; font-size:10.3982px; letter-spacing:1.064;"> </tspan><tspan x="111.877" y="12.478" style="fill:#C4C3C3; font-family:'Roboto-Light'; font-size:10.3982px;">diam</tspan><tspan x="134.769" y="12.478" style="fill:#C4C3C3; font-family:'Roboto-Light'; font-size:10.3982px; letter-spacing:1.064;"> </tspan><tspan x="138.763" y="12.478" style="fill:#C4C3C3; font-family:'Roboto-Light'; font-size:10.3982px;">nonum</tspan><tspan x="170.938" y="12.478" style="fill:#C4C3C3; font-family:'Roboto-Light'; font-size:10.3982px;">-</tspan><tspan x="0" y="24.955" style="fill:#C4C3C3; font-family:'Roboto-Light'; font-size:10.3982px;">my nibh euismod tincivolutpat. </tspan></text>
	</g>
	<g>
		<rect x="371.392" y="543.616" style="fill:none;" width="163.404" height="46.124"/>
		<text transform="matrix(0.9396 0 0 1 371.3922 551.4152)"><tspan x="0" y="0" style="fill:#C4C3C3; font-family:'Roboto-Light'; font-size:10.3982px;">Lorem</tspan><tspan x="29.387" y="0" style="fill:#C4C3C3; font-family:'Roboto-Light'; font-size:10.3982px;"> </tspan><tspan x="31.784" y="0" style="fill:#C4C3C3; font-family:'Roboto-Light'; font-size:10.3982px;">ipsum</tspan><tspan x="60.069" y="0" style="fill:#C4C3C3; font-family:'Roboto-Light'; font-size:10.3982px;"> </tspan><tspan x="62.468" y="0" style="fill:#C4C3C3; font-family:'Roboto-Light'; font-size:10.3982px;">dolor</tspan><tspan x="85.721" y="0" style="fill:#C4C3C3; font-family:'Roboto-Light'; font-size:10.3982px;"> </tspan><tspan x="88.119" y="0" style="fill:#C4C3C3; font-family:'Roboto-Light'; font-size:10.3982px;">sit</tspan><tspan x="99.055" y="0" style="fill:#C4C3C3; font-family:'Roboto-Light'; font-size:10.3982px;"> </tspan><tspan x="101.453" y="0" style="fill:#C4C3C3; font-family:'Roboto-Light'; font-size:10.3982px;">amet,</tspan><tspan x="126.94" y="0" style="fill:#C4C3C3; font-family:'Roboto-Light'; font-size:10.3982px;"> </tspan><tspan x="129.339" y="0" style="fill:#C4C3C3; font-family:'Roboto-Light'; font-size:10.3982px;">consecte</tspan><tspan x="170.937" y="0" style="fill:#C4C3C3; font-family:'Roboto-Light'; font-size:10.3982px;">-</tspan><tspan x="0" y="12.478" style="fill:#C4C3C3; font-family:'Roboto-Light'; font-size:10.3982px;">tuer</tspan><tspan x="17.923" y="12.478" style="fill:#C4C3C3; font-family:'Roboto-Light'; font-size:10.3982px; letter-spacing:1.064;"> </tspan><tspan x="21.916" y="12.478" style="fill:#C4C3C3; font-family:'Roboto-Light'; font-size:10.3982px;">adipiscing</tspan><tspan x="68.118" y="12.478" style="fill:#C4C3C3; font-family:'Roboto-Light'; font-size:10.3982px; letter-spacing:1.064;"> </tspan><tspan x="72.112" y="12.478" style="fill:#C4C3C3; font-family:'Roboto-Light'; font-size:10.3982px;">elit,</tspan><tspan x="87.475" y="12.478" style="fill:#C4C3C3; font-family:'Roboto-Light'; font-size:10.3982px; letter-spacing:1.064;"> </tspan><tspan x="91.468" y="12.478" style="fill:#C4C3C3; font-family:'Roboto-Light'; font-size:10.3982px;">sed</tspan><tspan x="107.882" y="12.478" style="fill:#C4C3C3; font-family:'Roboto-Light'; font-size:10.3982px; letter-spacing:1.064;"> </tspan><tspan x="111.877" y="12.478" style="fill:#C4C3C3; font-family:'Roboto-Light'; font-size:10.3982px;">diam</tspan><tspan x="134.769" y="12.478" style="fill:#C4C3C3; font-family:'Roboto-Light'; font-size:10.3982px; letter-spacing:1.064;"> </tspan><tspan x="138.763" y="12.478" style="fill:#C4C3C3; font-family:'Roboto-Light'; font-size:10.3982px;">nonum</tspan><tspan x="170.938" y="12.478" style="fill:#C4C3C3; font-family:'Roboto-Light'; font-size:10.3982px;">-</tspan><tspan x="0" y="24.955" style="fill:#C4C3C3; font-family:'Roboto-Light'; font-size:10.3982px;">my nibh euismod tincivolutpat. </tspan></text>
	</g>
	<g>
		<rect x="371.392" y="641.012" style="fill:none;" width="163.404" height="46.124"/>
		<text transform="matrix(0.9396 0 0 1 371.3922 648.8116)"><tspan x="0" y="0" style="fill:#C4C3C3; font-family:'Roboto-Light'; font-size:10.3982px;">Lorem</tspan><tspan x="29.387" y="0" style="fill:#C4C3C3; font-family:'Roboto-Light'; font-size:10.3982px;"> </tspan><tspan x="31.784" y="0" style="fill:#C4C3C3; font-family:'Roboto-Light'; font-size:10.3982px;">ipsum</tspan><tspan x="60.069" y="0" style="fill:#C4C3C3; font-family:'Roboto-Light'; font-size:10.3982px;"> </tspan><tspan x="62.468" y="0" style="fill:#C4C3C3; font-family:'Roboto-Light'; font-size:10.3982px;">dolor</tspan><tspan x="85.721" y="0" style="fill:#C4C3C3; font-family:'Roboto-Light'; font-size:10.3982px;"> </tspan><tspan x="88.119" y="0" style="fill:#C4C3C3; font-family:'Roboto-Light'; font-size:10.3982px;">sit</tspan><tspan x="99.055" y="0" style="fill:#C4C3C3; font-family:'Roboto-Light'; font-size:10.3982px;"> </tspan><tspan x="101.453" y="0" style="fill:#C4C3C3; font-family:'Roboto-Light'; font-size:10.3982px;">amet,</tspan><tspan x="126.94" y="0" style="fill:#C4C3C3; font-family:'Roboto-Light'; font-size:10.3982px;"> </tspan><tspan x="129.339" y="0" style="fill:#C4C3C3; font-family:'Roboto-Light'; font-size:10.3982px;">consecte</tspan><tspan x="170.937" y="0" style="fill:#C4C3C3; font-family:'Roboto-Light'; font-size:10.3982px;">-</tspan><tspan x="0" y="12.478" style="fill:#C4C3C3; font-family:'Roboto-Light'; font-size:10.3982px;">tuer</tspan><tspan x="17.923" y="12.478" style="fill:#C4C3C3; font-family:'Roboto-Light'; font-size:10.3982px; letter-spacing:1.064;"> </tspan><tspan x="21.916" y="12.478" style="fill:#C4C3C3; font-family:'Roboto-Light'; font-size:10.3982px;">adipiscing</tspan><tspan x="68.118" y="12.478" style="fill:#C4C3C3; font-family:'Roboto-Light'; font-size:10.3982px; letter-spacing:1.064;"> </tspan><tspan x="72.112" y="12.478" style="fill:#C4C3C3; font-family:'Roboto-Light'; font-size:10.3982px;">elit,</tspan><tspan x="87.475" y="12.478" style="fill:#C4C3C3; font-family:'Roboto-Light'; font-size:10.3982px; letter-spacing:1.064;"> </tspan><tspan x="91.468" y="12.478" style="fill:#C4C3C3; font-family:'Roboto-Light'; font-size:10.3982px;">sed</tspan><tspan x="107.882" y="12.478" style="fill:#C4C3C3; font-family:'Roboto-Light'; font-size:10.3982px; letter-spacing:1.064;"> </tspan><tspan x="111.877" y="12.478" style="fill:#C4C3C3; font-family:'Roboto-Light'; font-size:10.3982px;">diam</tspan><tspan x="134.769" y="12.478" style="fill:#C4C3C3; font-family:'Roboto-Light'; font-size:10.3982px; letter-spacing:1.064;"> </tspan><tspan x="138.763" y="12.478" style="fill:#C4C3C3; font-family:'Roboto-Light'; font-size:10.3982px;">nonum</tspan><tspan x="170.938" y="12.478" style="fill:#C4C3C3; font-family:'Roboto-Light'; font-size:10.3982px;">-</tspan><tspan x="0" y="24.955" style="fill:#C4C3C3; font-family:'Roboto-Light'; font-size:10.3982px;">my nibh euismod tincivolutpat. </tspan></text>
	</g>
	<path style="fill:#00425A;" d="M-8.504,37.248v318.088c0,0,144.751,62.141,373.768-78.235
		c212.74-130.398,235.681,8.84,235.681,8.84V37.248H-8.504z"/>
	
		<linearGradient id="SVGID_00000114759262373300432510000007676873548769206665_" gradientUnits="userSpaceOnUse" x1="-8.5039" y1="156.3082" x2="600.9449" y2="156.3082">
		<stop  offset="1.100000e-07" style="stop-color:#FCB415"/>
		<stop  offset="0.9964" style="stop-color:#F78F1E"/>
	</linearGradient>
	<path style="fill:url(#SVGID_00000114759262373300432510000007676873548769206665_);" d="M-8.504-8.504v288.973
		c0,0,132.956,102.971,350.821-18.854c217.866-121.824,258.628,1.45,258.628,1.45V-8.504H-8.504z"/>
	<path style="fill:#00425A;" d="M600.941,749.795v97.764H-8.495v-80.357c0,0,40.761,123.281,258.621,1.456
		C467.985,646.833,600.941,749.795,600.941,749.795z"/>
	<g>
		<text transform="matrix(1.0103 0 0 1 108.8648 147.5641)" style="fill:#FFFFFF; font-family:'Bevan'; font-size:79.3967px;">BUSINESS</text>
		
			<text transform="matrix(1.0103 0 0 1 41.292 225.9737)" style="fill:#FFFFFF; font-family:'Roboto-Medium'; font-size:71.4272px;">FLYER</text>
	</g>
	<g>
		<polygon style="fill:none;" points="306.303,718.331 45.145,755.764 45.145,456.393 306.303,456.393 		"/>
		<text transform="matrix(0.9396 0 0 1 45.1446 465.754)"><tspan x="0" y="0" style="fill:#A3A2A2; font-family:'Roboto-Regular'; font-size:12.4778px;">Lorem</tspan><tspan x="35.6" y="0" style="fill:#A3A2A2; font-family:'Roboto-Regular'; font-size:12.4778px; letter-spacing:1.064;"> </tspan><tspan x="39.903" y="0" style="fill:#A3A2A2; font-family:'Roboto-Regular'; font-size:12.4778px;">ipsum</tspan><tspan x="74.181" y="0" style="fill:#A3A2A2; font-family:'Roboto-Regular'; font-size:12.4778px; letter-spacing:1.064;"> </tspan><tspan x="78.484" y="0" style="fill:#A3A2A2; font-family:'Roboto-Regular'; font-size:12.4778px;">dolor</tspan><tspan x="107.004" y="0" style="fill:#A3A2A2; font-family:'Roboto-Regular'; font-size:12.4778px; letter-spacing:1.064;"> </tspan><tspan x="111.307" y="0" style="fill:#A3A2A2; font-family:'Roboto-Regular'; font-size:12.4778px;">sit</tspan><tspan x="124.845" y="0" style="fill:#A3A2A2; font-family:'Roboto-Regular'; font-size:12.4778px; letter-spacing:1.064;"> </tspan><tspan x="129.148" y="0" style="fill:#A3A2A2; font-family:'Roboto-Regular'; font-size:12.4778px;">amet,</tspan><tspan x="160.008" y="0" style="fill:#A3A2A2; font-family:'Roboto-Regular'; font-size:12.4778px; letter-spacing:1.064;"> </tspan><tspan x="164.311" y="0" style="fill:#A3A2A2; font-family:'Roboto-Regular'; font-size:12.4778px;">consectetuer</tspan><tspan x="236.893" y="0" style="fill:#A3A2A2; font-family:'Roboto-Regular'; font-size:12.4778px; letter-spacing:1.064;"> </tspan><tspan x="241.196" y="0" style="fill:#A3A2A2; font-family:'Roboto-Regular'; font-size:12.4778px;">adipis</tspan><tspan x="274.511" y="0" style="fill:#A3A2A2; font-family:'Roboto-Regular'; font-size:12.4778px;">-</tspan><tspan x="0" y="18.717" style="fill:#A3A2A2; font-family:'Roboto-Regular'; font-size:12.4778px;">cing</tspan><tspan x="23.445" y="18.717" style="fill:#A3A2A2; font-family:'Roboto-Regular'; font-size:12.4778px; letter-spacing:1.064;"> </tspan><tspan x="28.171" y="18.717" style="fill:#A3A2A2; font-family:'Roboto-Regular'; font-size:12.4778px;">elit,</tspan><tspan x="47.363" y="18.717" style="fill:#A3A2A2; font-family:'Roboto-Regular'; font-size:12.4778px; letter-spacing:1.064;"> </tspan><tspan x="52.09" y="18.717" style="fill:#A3A2A2; font-family:'Roboto-Regular'; font-size:12.4778px;">sed</tspan><tspan x="72.171" y="18.717" style="fill:#A3A2A2; font-family:'Roboto-Regular'; font-size:12.4778px; letter-spacing:1.064;"> </tspan><tspan x="76.898" y="18.717" style="fill:#A3A2A2; font-family:'Roboto-Regular'; font-size:12.4778px;">diam</tspan><tspan x="104.687" y="18.717" style="fill:#A3A2A2; font-family:'Roboto-Regular'; font-size:12.4778px; letter-spacing:1.064;"> </tspan><tspan x="109.414" y="18.717" style="fill:#A3A2A2; font-family:'Roboto-Regular'; font-size:12.4778px;">nonummy</tspan><tspan x="164.955" y="18.717" style="fill:#A3A2A2; font-family:'Roboto-Regular'; font-size:12.4778px; letter-spacing:1.064;"> </tspan><tspan x="169.682" y="18.717" style="fill:#A3A2A2; font-family:'Roboto-Regular'; font-size:12.4778px;">nibh</tspan><tspan x="193.468" y="18.717" style="fill:#A3A2A2; font-family:'Roboto-Regular'; font-size:12.4778px; letter-spacing:1.064;"> </tspan><tspan x="198.194" y="18.717" style="fill:#A3A2A2; font-family:'Roboto-Regular'; font-size:12.4778px;">euismod</tspan><tspan x="246.235" y="18.717" style="fill:#A3A2A2; font-family:'Roboto-Regular'; font-size:12.4778px; letter-spacing:1.064;"> </tspan><tspan x="250.962" y="18.717" style="fill:#A3A2A2; font-family:'Roboto-Regular'; font-size:12.4778px;">tinci</tspan><tspan x="274.51" y="18.717" style="fill:#A3A2A2; font-family:'Roboto-Regular'; font-size:12.4778px;">-</tspan><tspan x="0" y="37.434" style="fill:#A3A2A2; font-family:'Roboto-Regular'; font-size:12.4778px;">dunt</tspan><tspan x="24.876" y="37.434" style="fill:#A3A2A2; font-family:'Roboto-Regular'; font-size:12.4778px; letter-spacing:1.064;"> </tspan><tspan x="29.637" y="37.434" style="fill:#A3A2A2; font-family:'Roboto-Regular'; font-size:12.4778px;">ut</tspan><tspan x="40.591" y="37.434" style="fill:#A3A2A2; font-family:'Roboto-Regular'; font-size:12.4778px; letter-spacing:1.064;"> </tspan><tspan x="45.351" y="37.434" style="fill:#A3A2A2; font-family:'Roboto-Regular'; font-size:12.4778px;">laoreet</tspan><tspan x="83.803" y="37.434" style="fill:#A3A2A2; font-family:'Roboto-Regular'; font-size:12.4778px; letter-spacing:1.064;"> </tspan><tspan x="88.563" y="37.434" style="fill:#A3A2A2; font-family:'Roboto-Regular'; font-size:12.4778px;">dolore</tspan><tspan x="123.695" y="37.434" style="fill:#A3A2A2; font-family:'Roboto-Regular'; font-size:12.4778px; letter-spacing:1.064;"> </tspan><tspan x="128.455" y="37.434" style="fill:#A3A2A2; font-family:'Roboto-Regular'; font-size:12.4778px;">magna</tspan><tspan x="166.851" y="37.434" style="fill:#A3A2A2; font-family:'Roboto-Regular'; font-size:12.4778px; letter-spacing:1.064;"> </tspan><tspan x="171.612" y="37.434" style="fill:#A3A2A2; font-family:'Roboto-Regular'; font-size:12.4778px;">aliquam</tspan><tspan x="216.15" y="37.434" style="fill:#A3A2A2; font-family:'Roboto-Regular'; font-size:12.4778px; letter-spacing:1.064;"> </tspan><tspan x="220.911" y="37.434" style="fill:#A3A2A2; font-family:'Roboto-Regular'; font-size:12.4778px;">erat</tspan><tspan x="242.607" y="37.434" style="fill:#A3A2A2; font-family:'Roboto-Regular'; font-size:12.4778px; letter-spacing:1.064;"> </tspan><tspan x="247.368" y="37.434" style="fill:#A3A2A2; font-family:'Roboto-Regular'; font-size:12.4778px;">volut</tspan><tspan x="274.51" y="37.434" style="fill:#A3A2A2; font-family:'Roboto-Regular'; font-size:12.4778px;">-</tspan><tspan x="0" y="56.15" style="fill:#A3A2A2; font-family:'Roboto-Regular'; font-size:12.4778px;">pat.</tspan><tspan x="21.148" y="56.15" style="fill:#A3A2A2; font-family:'Roboto-Regular'; font-size:12.4778px; letter-spacing:3.193;"> </tspan><tspan x="28.052" y="56.15" style="fill:#A3A2A2; font-family:'Roboto-Regular'; font-size:12.4778px;">Lorem</tspan><tspan x="63.652" y="56.15" style="fill:#A3A2A2; font-family:'Roboto-Regular'; font-size:12.4778px; letter-spacing:3.193;"> </tspan><tspan x="70.557" y="56.15" style="fill:#A3A2A2; font-family:'Roboto-Regular'; font-size:12.4778px;">ipsum</tspan><tspan x="104.835" y="56.15" style="fill:#A3A2A2; font-family:'Roboto-Regular'; font-size:12.4778px; letter-spacing:3.193;"> </tspan><tspan x="111.739" y="56.15" style="fill:#A3A2A2; font-family:'Roboto-Regular'; font-size:12.4778px;">dolor</tspan><tspan x="140.259" y="56.15" style="fill:#A3A2A2; font-family:'Roboto-Regular'; font-size:12.4778px; letter-spacing:3.193;"> </tspan><tspan x="147.164" y="56.15" style="fill:#A3A2A2; font-family:'Roboto-Regular'; font-size:12.4778px;">sit</tspan><tspan x="160.702" y="56.15" style="fill:#A3A2A2; font-family:'Roboto-Regular'; font-size:12.4778px; letter-spacing:3.193;"> </tspan><tspan x="167.606" y="56.15" style="fill:#A3A2A2; font-family:'Roboto-Regular'; font-size:12.4778px;">amet,</tspan><tspan x="198.466" y="56.15" style="fill:#A3A2A2; font-family:'Roboto-Regular'; font-size:12.4778px; letter-spacing:3.193;"> </tspan><tspan x="205.37" y="56.15" style="fill:#A3A2A2; font-family:'Roboto-Regular'; font-size:12.4778px;">consectetuer </tspan><tspan x="0" y="74.867" style="fill:#A3A2A2; font-family:'Roboto-Regular'; font-size:12.4778px;">adipiscing</tspan><tspan x="56.76" y="74.867" style="fill:#A3A2A2; font-family:'Roboto-Regular'; font-size:12.4778px; letter-spacing:1.064;"> </tspan><tspan x="61.22" y="74.867" style="fill:#A3A2A2; font-family:'Roboto-Regular'; font-size:12.4778px;">elit,</tspan><tspan x="80.412" y="74.867" style="fill:#A3A2A2; font-family:'Roboto-Regular'; font-size:12.4778px; letter-spacing:1.064;"> </tspan><tspan x="84.873" y="74.867" style="fill:#A3A2A2; font-family:'Roboto-Regular'; font-size:12.4778px;">sed</tspan><tspan x="104.955" y="74.867" style="fill:#A3A2A2; font-family:'Roboto-Regular'; font-size:12.4778px; letter-spacing:1.064;"> </tspan><tspan x="109.415" y="74.867" style="fill:#A3A2A2; font-family:'Roboto-Regular'; font-size:12.4778px;">diam</tspan><tspan x="137.204" y="74.867" style="fill:#A3A2A2; font-family:'Roboto-Regular'; font-size:12.4778px; letter-spacing:1.064;"> </tspan><tspan x="141.664" y="74.867" style="fill:#A3A2A2; font-family:'Roboto-Regular'; font-size:12.4778px;">nonummy</tspan><tspan x="197.206" y="74.867" style="fill:#A3A2A2; font-family:'Roboto-Regular'; font-size:12.4778px; letter-spacing:1.064;"> </tspan><tspan x="201.666" y="74.867" style="fill:#A3A2A2; font-family:'Roboto-Regular'; font-size:12.4778px;">nibh</tspan><tspan x="225.452" y="74.867" style="fill:#A3A2A2; font-family:'Roboto-Regular'; font-size:12.4778px; letter-spacing:1.064;"> </tspan><tspan x="229.912" y="74.867" style="fill:#A3A2A2; font-family:'Roboto-Regular'; font-size:12.4778px;">euismod </tspan><tspan x="0" y="93.583" style="fill:#A3A2A2; font-family:'Roboto-Regular'; font-size:12.4778px;">tincidunt</tspan><tspan x="48.424" y="93.583" style="fill:#A3A2A2; font-family:'Roboto-Regular'; font-size:12.4778px; letter-spacing:3.193;"> </tspan><tspan x="55.15" y="93.583" style="fill:#A3A2A2; font-family:'Roboto-Regular'; font-size:12.4778px;">ut</tspan><tspan x="66.105" y="93.583" style="fill:#A3A2A2; font-family:'Roboto-Regular'; font-size:12.4778px; letter-spacing:3.193;"> </tspan><tspan x="72.831" y="93.583" style="fill:#A3A2A2; font-family:'Roboto-Regular'; font-size:12.4778px;">laoreet</tspan><tspan x="111.283" y="93.583" style="fill:#A3A2A2; font-family:'Roboto-Regular'; font-size:12.4778px; letter-spacing:3.193;"> </tspan><tspan x="118.01" y="93.583" style="fill:#A3A2A2; font-family:'Roboto-Regular'; font-size:12.4778px;">dolore</tspan><tspan x="153.141" y="93.583" style="fill:#A3A2A2; font-family:'Roboto-Regular'; font-size:12.4778px; letter-spacing:3.193;"> </tspan><tspan x="159.868" y="93.583" style="fill:#A3A2A2; font-family:'Roboto-Regular'; font-size:12.4778px;">magna</tspan><tspan x="198.265" y="93.583" style="fill:#A3A2A2; font-family:'Roboto-Regular'; font-size:12.4778px; letter-spacing:3.193;"> </tspan><tspan x="204.991" y="93.583" style="fill:#A3A2A2; font-family:'Roboto-Regular'; font-size:12.4778px;">aliquam</tspan><tspan x="249.53" y="93.583" style="fill:#A3A2A2; font-family:'Roboto-Regular'; font-size:12.4778px; letter-spacing:3.193;"> </tspan><tspan x="256.256" y="93.583" style="fill:#A3A2A2; font-family:'Roboto-Regular'; font-size:12.4778px;">erat </tspan><tspan x="0" y="112.3" style="fill:#A3A2A2; font-family:'Roboto-Regular'; font-size:12.4778px;">volutpat.</tspan><tspan x="48.29" y="112.3" style="fill:#A3A2A2; font-family:'Roboto-Regular'; font-size:12.4778px; letter-spacing:1.064;">  </tspan><tspan x="57.613" y="112.3" style="fill:#A3A2A2; font-family:'Roboto-Regular'; font-size:12.4778px;">Lorem</tspan><tspan x="93.213" y="112.3" style="fill:#A3A2A2; font-family:'Roboto-Regular'; font-size:12.4778px; letter-spacing:1.064;"> </tspan><tspan x="97.875" y="112.3" style="fill:#A3A2A2; font-family:'Roboto-Regular'; font-size:12.4778px;">ipsum</tspan><tspan x="132.152" y="112.3" style="fill:#A3A2A2; font-family:'Roboto-Regular'; font-size:12.4778px; letter-spacing:1.064;"> </tspan><tspan x="136.813" y="112.3" style="fill:#A3A2A2; font-family:'Roboto-Regular'; font-size:12.4778px;">dolor</tspan><tspan x="165.334" y="112.3" style="fill:#A3A2A2; font-family:'Roboto-Regular'; font-size:12.4778px; letter-spacing:1.064;"> </tspan><tspan x="169.995" y="112.3" style="fill:#A3A2A2; font-family:'Roboto-Regular'; font-size:12.4778px;">sit</tspan><tspan x="183.533" y="112.3" style="fill:#A3A2A2; font-family:'Roboto-Regular'; font-size:12.4778px; letter-spacing:1.064;"> </tspan><tspan x="188.195" y="112.3" style="fill:#A3A2A2; font-family:'Roboto-Regular'; font-size:12.4778px;">amet,</tspan><tspan x="219.054" y="112.3" style="fill:#A3A2A2; font-family:'Roboto-Regular'; font-size:12.4778px; letter-spacing:1.064;"> </tspan><tspan x="223.715" y="112.3" style="fill:#A3A2A2; font-family:'Roboto-Regular'; font-size:12.4778px;">consecte</tspan><tspan x="274.51" y="112.3" style="fill:#A3A2A2; font-family:'Roboto-Regular'; font-size:12.4778px;">-</tspan><tspan x="0" y="131.017" style="fill:#A3A2A2; font-family:'Roboto-Regular'; font-size:12.4778px;">tuer</tspan><tspan x="21.787" y="131.017" style="fill:#A3A2A2; font-family:'Roboto-Regular'; font-size:12.4778px;"> </tspan><tspan x="25.59" y="131.017" style="fill:#A3A2A2; font-family:'Roboto-Regular'; font-size:12.4778px;">adipiscing</tspan><tspan x="82.35" y="131.017" style="fill:#A3A2A2; font-family:'Roboto-Regular'; font-size:12.4778px;"> </tspan><tspan x="86.154" y="131.017" style="fill:#A3A2A2; font-family:'Roboto-Regular'; font-size:12.4778px;">elit,</tspan><tspan x="105.346" y="131.017" style="fill:#A3A2A2; font-family:'Roboto-Regular'; font-size:12.4778px;"> </tspan><tspan x="109.149" y="131.017" style="fill:#A3A2A2; font-family:'Roboto-Regular'; font-size:12.4778px;">sed</tspan><tspan x="129.231" y="131.017" style="fill:#A3A2A2; font-family:'Roboto-Regular'; font-size:12.4778px;"> </tspan><tspan x="133.034" y="131.017" style="fill:#A3A2A2; font-family:'Roboto-Regular'; font-size:12.4778px;">diam</tspan><tspan x="160.823" y="131.017" style="fill:#A3A2A2; font-family:'Roboto-Regular'; font-size:12.4778px;"> </tspan><tspan x="164.626" y="131.017" style="fill:#A3A2A2; font-family:'Roboto-Regular'; font-size:12.4778px;">nonummy</tspan><tspan x="220.167" y="131.017" style="fill:#A3A2A2; font-family:'Roboto-Regular'; font-size:12.4778px;"> </tspan><tspan x="223.97" y="131.017" style="fill:#A3A2A2; font-family:'Roboto-Regular'; font-size:12.4778px;">nibh</tspan><tspan x="247.757" y="131.017" style="fill:#A3A2A2; font-family:'Roboto-Regular'; font-size:12.4778px;"> </tspan><tspan x="251.56" y="131.017" style="fill:#A3A2A2; font-family:'Roboto-Regular'; font-size:12.4778px;">euis</tspan><tspan x="274.51" y="131.017" style="fill:#A3A2A2; font-family:'Roboto-Regular'; font-size:12.4778px;">-</tspan><tspan x="0" y="149.733" style="fill:#A3A2A2; font-family:'Roboto-Regular'; font-size:12.4778px;">mod</tspan><tspan x="25.09" y="149.733" style="fill:#A3A2A2; font-family:'Roboto-Regular'; font-size:12.4778px; letter-spacing:2.129;"> </tspan><tspan x="31.251" y="149.733" style="fill:#A3A2A2; font-family:'Roboto-Regular'; font-size:12.4778px;">tincidunt</tspan><tspan x="79.675" y="149.733" style="fill:#A3A2A2; font-family:'Roboto-Regular'; font-size:12.4778px; letter-spacing:2.129;"> </tspan><tspan x="85.836" y="149.733" style="fill:#A3A2A2; font-family:'Roboto-Regular'; font-size:12.4778px;">ut</tspan><tspan x="96.79" y="149.733" style="fill:#A3A2A2; font-family:'Roboto-Regular'; font-size:12.4778px; letter-spacing:2.129;"> </tspan><tspan x="102.951" y="149.733" style="fill:#A3A2A2; font-family:'Roboto-Regular'; font-size:12.4778px;">laoreet</tspan><tspan x="141.403" y="149.733" style="fill:#A3A2A2; font-family:'Roboto-Regular'; font-size:12.4778px; letter-spacing:2.129;"> </tspan><tspan x="147.564" y="149.733" style="fill:#A3A2A2; font-family:'Roboto-Regular'; font-size:12.4778px;">dolore</tspan><tspan x="182.695" y="149.733" style="fill:#A3A2A2; font-family:'Roboto-Regular'; font-size:12.4778px; letter-spacing:2.129;"> </tspan><tspan x="188.857" y="149.733" style="fill:#A3A2A2; font-family:'Roboto-Regular'; font-size:12.4778px;">magna</tspan><tspan x="227.253" y="149.733" style="fill:#A3A2A2; font-family:'Roboto-Regular'; font-size:12.4778px; letter-spacing:2.129;"> </tspan><tspan x="233.414" y="149.733" style="fill:#A3A2A2; font-family:'Roboto-Regular'; font-size:12.4778px;">aliquam </tspan><tspan x="0" y="168.45" style="fill:#A3A2A2; font-family:'Roboto-Regular'; font-size:12.4778px;">erat volutpat. Lorem ipsum dolor sit amet, consec</tspan><tspan x="274.515" y="168.45" style="fill:#A3A2A2; font-family:'Roboto-Regular'; font-size:12.4778px;">-</tspan><tspan x="0" y="187.167" style="fill:#A3A2A2; font-family:'Roboto-Regular'; font-size:12.4778px;">tetuer</tspan><tspan x="32.474" y="187.167" style="fill:#A3A2A2; font-family:'Roboto-Regular'; font-size:12.4778px; letter-spacing:3.193;"> </tspan><tspan x="39.529" y="187.167" style="fill:#A3A2A2; font-family:'Roboto-Regular'; font-size:12.4778px;">adipiscing</tspan><tspan x="96.288" y="187.167" style="fill:#A3A2A2; font-family:'Roboto-Regular'; font-size:12.4778px; letter-spacing:3.193;"> </tspan><tspan x="103.343" y="187.167" style="fill:#A3A2A2; font-family:'Roboto-Regular'; font-size:12.4778px;">elit,</tspan><tspan x="122.536" y="187.167" style="fill:#A3A2A2; font-family:'Roboto-Regular'; font-size:12.4778px; letter-spacing:3.193;"> </tspan><tspan x="129.59" y="187.167" style="fill:#A3A2A2; font-family:'Roboto-Regular'; font-size:12.4778px;">sed</tspan><tspan x="149.672" y="187.167" style="fill:#A3A2A2; font-family:'Roboto-Regular'; font-size:12.4778px; letter-spacing:3.193;"> </tspan><tspan x="156.727" y="187.167" style="fill:#A3A2A2; font-family:'Roboto-Regular'; font-size:12.4778px;">diam</tspan><tspan x="184.516" y="187.167" style="fill:#A3A2A2; font-family:'Roboto-Regular'; font-size:12.4778px; letter-spacing:3.193;"> </tspan><tspan x="191.57" y="187.167" style="fill:#A3A2A2; font-family:'Roboto-Regular'; font-size:12.4778px;">nonummy</tspan><tspan x="247.112" y="187.167" style="fill:#A3A2A2; font-family:'Roboto-Regular'; font-size:12.4778px; letter-spacing:3.193;"> </tspan><tspan x="254.166" y="187.167" style="fill:#A3A2A2; font-family:'Roboto-Regular'; font-size:12.4778px;">nibh </tspan><tspan x="0" y="205.884" style="fill:#A3A2A2; font-family:'Roboto-Regular'; font-size:12.4778px;">euismod</tspan><tspan x="48.041" y="205.884" style="fill:#A3A2A2; font-family:'Roboto-Regular'; font-size:12.4778px; letter-spacing:8.514;"> </tspan><tspan x="59.752" y="205.884" style="fill:#A3A2A2; font-family:'Roboto-Regular'; font-size:12.4778px;">tincidunt</tspan><tspan x="108.176" y="205.884" style="fill:#A3A2A2; font-family:'Roboto-Regular'; font-size:12.4778px; letter-spacing:8.514;"> </tspan><tspan x="119.886" y="205.884" style="fill:#A3A2A2; font-family:'Roboto-Regular'; font-size:12.4778px;">ut</tspan><tspan x="130.841" y="205.884" style="fill:#A3A2A2; font-family:'Roboto-Regular'; font-size:12.4778px; letter-spacing:8.514;"> </tspan><tspan x="142.551" y="205.884" style="fill:#A3A2A2; font-family:'Roboto-Regular'; font-size:12.4778px;">laoreet</tspan><tspan x="181.003" y="205.884" style="fill:#A3A2A2; font-family:'Roboto-Regular'; font-size:12.4778px; letter-spacing:8.514;"> </tspan><tspan x="192.714" y="205.884" style="fill:#A3A2A2; font-family:'Roboto-Regular'; font-size:12.4778px;">dolore</tspan><tspan x="227.845" y="205.884" style="fill:#A3A2A2; font-family:'Roboto-Regular'; font-size:12.4778px; letter-spacing:8.514;"> </tspan><tspan x="239.555" y="205.884" style="fill:#A3A2A2; font-family:'Roboto-Regular'; font-size:12.4778px;">magna </tspan><tspan x="0" y="224.601" style="fill:#A3A2A2; font-family:'Roboto-Regular'; font-size:12.4778px;">aliquam</tspan><tspan x="44.538" y="224.601" style="fill:#A3A2A2; font-family:'Roboto-Regular'; font-size:12.4778px;"> </tspan><tspan x="47.955" y="224.601" style="fill:#A3A2A2; font-family:'Roboto-Regular'; font-size:12.4778px;">erat</tspan><tspan x="69.651" y="224.601" style="fill:#A3A2A2; font-family:'Roboto-Regular'; font-size:12.4778px;"> </tspan><tspan x="73.068" y="224.601" style="fill:#A3A2A2; font-family:'Roboto-Regular'; font-size:12.4778px;">volutpat</tspan><tspan x="118.074" y="224.601" style="fill:#A3A2A2; font-family:'Roboto-Regular'; font-size:12.4778px;"> </tspan><tspan x="121.491" y="224.601" style="fill:#A3A2A2; font-family:'Roboto-Regular'; font-size:12.4778px;">Lorem</tspan><tspan x="157.091" y="224.601" style="fill:#A3A2A2; font-family:'Roboto-Regular'; font-size:12.4778px;"> </tspan><tspan x="160.508" y="224.601" style="fill:#A3A2A2; font-family:'Roboto-Regular'; font-size:12.4778px;">ipsum</tspan><tspan x="194.786" y="224.601" style="fill:#A3A2A2; font-family:'Roboto-Regular'; font-size:12.4778px;"> </tspan><tspan x="198.202" y="224.601" style="fill:#A3A2A2; font-family:'Roboto-Regular'; font-size:12.4778px;">dolor</tspan><tspan x="226.722" y="224.601" style="fill:#A3A2A2; font-family:'Roboto-Regular'; font-size:12.4778px;"> </tspan><tspan x="230.139" y="224.601" style="fill:#A3A2A2; font-family:'Roboto-Regular'; font-size:12.4778px;">sit</tspan><tspan x="243.677" y="224.601" style="fill:#A3A2A2; font-family:'Roboto-Regular'; font-size:12.4778px;"> </tspan><tspan x="247.093" y="224.601" style="fill:#A3A2A2; font-family:'Roboto-Regular'; font-size:12.4778px;">amet, </tspan><tspan x="0" y="243.317" style="fill:#A3A2A2; font-family:'Roboto-Regular'; font-size:12.4778px;">consectetuer</tspan><tspan x="72.582" y="243.317" style="fill:#A3A2A2; font-family:'Roboto-Regular'; font-size:12.4778px; letter-spacing:1.064;"> </tspan><tspan x="77.784" y="243.317" style="fill:#A3A2A2; font-family:'Roboto-Regular'; font-size:12.4778px;">adipiscing</tspan><tspan x="134.544" y="243.317" style="fill:#A3A2A2; font-family:'Roboto-Regular'; font-size:12.4778px; letter-spacing:1.064;"> </tspan><tspan x="139.745" y="243.317" style="fill:#A3A2A2; font-family:'Roboto-Regular'; font-size:12.4778px;">elit,</tspan><tspan x="158.937" y="243.317" style="fill:#A3A2A2; font-family:'Roboto-Regular'; font-size:12.4778px; letter-spacing:1.064;"> </tspan><tspan x="164.138" y="243.317" style="fill:#A3A2A2; font-family:'Roboto-Regular'; font-size:12.4778px;">sed</tspan><tspan x="184.22" y="243.317" style="fill:#A3A2A2; font-family:'Roboto-Regular'; font-size:12.4778px; letter-spacing:1.064;"> </tspan><tspan x="189.421" y="243.317" style="fill:#A3A2A2; font-family:'Roboto-Regular'; font-size:12.4778px;">diam</tspan><tspan x="217.211" y="243.317" style="fill:#A3A2A2; font-family:'Roboto-Regular'; font-size:12.4778px; letter-spacing:1.064;"> </tspan><tspan x="222.411" y="243.317" style="fill:#A3A2A2; font-family:'Roboto-Regular'; font-size:12.4778px;">nonummy </tspan><tspan x="0" y="262.034" style="fill:#A3A2A2; font-family:'Roboto-Regular'; font-size:12.4778px;">nibh</tspan><tspan x="23.786" y="262.034" style="fill:#A3A2A2; font-family:'Roboto-Regular'; font-size:12.4778px; letter-spacing:6.386;"> </tspan><tspan x="33.319" y="262.034" style="fill:#A3A2A2; font-family:'Roboto-Regular'; font-size:12.4778px;">euismod</tspan><tspan x="81.361" y="262.034" style="fill:#A3A2A2; font-family:'Roboto-Regular'; font-size:12.4778px; letter-spacing:6.386;"> </tspan><tspan x="90.894" y="262.034" style="fill:#A3A2A2; font-family:'Roboto-Regular'; font-size:12.4778px;">tincidunt</tspan><tspan x="139.318" y="262.034" style="fill:#A3A2A2; font-family:'Roboto-Regular'; font-size:12.4778px; letter-spacing:6.386;"> </tspan><tspan x="148.851" y="262.034" style="fill:#A3A2A2; font-family:'Roboto-Regular'; font-size:12.4778px;">ut</tspan><tspan x="159.805" y="262.034" style="fill:#A3A2A2; font-family:'Roboto-Regular'; font-size:12.4778px; letter-spacing:6.386;"> </tspan><tspan x="169.339" y="262.034" style="fill:#A3A2A2; font-family:'Roboto-Regular'; font-size:12.4778px;">laoreet </tspan><tspan x="0" y="280.751" style="fill:#A3A2A2; font-family:'Roboto-Regular'; font-size:12.4778px; letter-spacing:6.386;">dolor</tspan><tspan x="62.179" y="280.751" style="fill:#A3A2A2; font-family:'Roboto-Regular'; font-size:12.4778px;">e </tspan></text>
	</g>
	<g>
		<text transform="matrix(1.0103 0 0 1 272.0714 214.8483)" style="fill:#00425A; font-family:'Bevan'; font-size:48.8612px;">2019</text>
	</g>
	<g>
		<g>
			<g>
				<path style="fill:#FFFFFF;" d="M383.198,794.257c0,5.702-4.425,10.388-10.044,10.835c-0.31,0.056-0.625,0.056-0.935,0.056
					c-0.823,0-1.62-0.081-2.383-0.249c-4.938-1.101-8.627-5.453-8.627-10.642c0-6.011,4.94-10.87,11.01-10.87
					C378.291,783.387,383.198,788.246,383.198,794.257z"/>
				<g>
					<g>
						<path style="fill:#00425A;" d="M373.466,791.979c0.169-0.197,0.51-0.34,0.994-0.34c0.451,0,0.992,0.061,1.502,0.203
							l0.428-2.283c-0.879-0.304-1.786-0.391-2.724-0.391c-0.938,0-1.676,0.142-2.27,0.477c-0.597,0.335-0.994,0.705-1.22,1.243
							c-0.228,0.472-0.341,1.288-0.341,2.298v0.898h-1.819v2.612h1.819v8.202c0.764,0.168,1.561,0.249,2.383,0.249
							c0.31,0,0.625,0,0.935-0.056v-8.395h2.411v-2.612h-2.411v-0.842C373.153,792.599,373.241,792.203,373.466,791.979z"/>
					</g>
				</g>
			</g>
			<g>
				<path style="fill:#FFFFFF;" d="M430.873,794.267c0,6.016-4.928,10.885-11,10.885c-6.073,0-10.993-4.87-10.993-10.885
					c0-6.011,4.92-10.885,10.993-10.885C425.945,783.382,430.873,788.256,430.873,794.267z"/>
				<g>
					<path style="fill-rule:evenodd;clip-rule:evenodd;fill:#00425A;" d="M426.394,792.71c-0.728-3.013-3.354-5.068-6.521-5.113
						c-0.418,0.02-0.869,0.05-1.279,0.132c-4.44,0.877-6.726,5.732-4.579,9.642c0.077,0.112,0.077,0.208,0.061,0.33
						c-0.313,1.009-0.6,2.049-0.876,3.074c-0.046,0.178-0.046,0.178,0.126,0.132c1.084-0.294,2.157-0.563,3.239-0.832
						c0.095-0.026,0.161-0.026,0.241,0.016c1.389,0.7,2.855,0.892,4.392,0.613C424.864,799.999,427.27,796.301,426.394,792.71z
						 M420.813,799.639c-0.32,0.061-0.62,0.086-0.771,0.066c-1.181,0-2.132-0.259-3.016-0.766c-0.126-0.076-0.22-0.097-0.341-0.056
						c-0.605,0.147-1.194,0.31-1.794,0.462c-0.123,0.035-0.136,0.015-0.108-0.112c0.159-0.543,0.307-1.101,0.482-1.669
						c0.038-0.152,0.028-0.269-0.069-0.395c-1.212-1.948-1.158-4.357,0.197-6.163c1.412-1.866,3.352-2.643,5.655-2.156
						c2.273,0.472,3.728,1.938,4.246,4.175C426.03,796.088,423.939,799.137,420.813,799.639z"/>
					<path style="fill-rule:evenodd;clip-rule:evenodd;fill:#00425A;" d="M421.623,797.371c-0.234,0.02-0.469-0.02-0.694-0.091
						c-1.53-0.441-2.688-1.369-3.618-2.632c-0.346-0.466-0.676-0.969-0.776-1.557c-0.141-0.685,0.077-1.299,0.602-1.77
						c0.174-0.163,0.684-0.238,0.892-0.132c0.067,0.056,0.105,0.112,0.149,0.178c0.19,0.472,0.392,0.908,0.584,1.354
						c0.028,0.091,0.023,0.188-0.028,0.279c-0.103,0.208-0.259,0.375-0.41,0.548c-0.128,0.107-0.128,0.233-0.041,0.365
						c0.548,0.903,1.289,1.552,2.283,1.938c0.144,0.061,0.254,0.035,0.344-0.076c0.172-0.198,0.341-0.411,0.5-0.619
						c0.097-0.132,0.228-0.152,0.372-0.092c0.328,0.147,0.651,0.299,0.964,0.441c0.087,0.046,0.148,0.076,0.225,0.102
						c0.331,0.167,0.331,0.188,0.292,0.538c-0.044,0.695-0.579,1.045-1.192,1.212C421.902,797.392,421.768,797.392,421.623,797.371z
						"/>
				</g>
			</g>
			<g>
				<path style="fill:#FFFFFF;" d="M478.545,794.273c0,6.005-4.925,10.88-10.992,10.88c-6.078,0-10.998-4.875-10.998-10.88
					c0-6.021,4.92-10.891,10.998-10.891C473.62,783.382,478.545,788.251,478.545,794.273z"/>
				<g>
					<g>
						<path style="fill-rule:evenodd;clip-rule:evenodd;fill:#00425A;" d="M460.895,798.701c1.046,0.066,2.06-0.091,3.014-0.517
							c0.43-0.182,0.82-0.411,1.209-0.715c-0.456-0.015-0.871-0.116-1.25-0.31c-0.646-0.319-1.102-0.837-1.379-1.521
							c-0.061-0.152-0.061-0.152,0.108-0.142c0.461,0.041,0.799,0.031,1.061-0.071c-0.251-0.086-0.487-0.132-0.682-0.264
							c-0.964-0.523-1.476-1.344-1.563-2.435c-0.01-0.127,0.026-0.142,0.143-0.086c0.339,0.183,0.707,0.269,1.132,0.31
							c-0.184-0.167-0.343-0.299-0.486-0.441c-0.8-0.852-0.989-2.207-0.457-3.241c0.072-0.137,0.098-0.137,0.195-0.03
							c1.348,1.537,3.023,2.47,5.043,2.785c0.205,0.04,0.43,0.046,0.641,0.081c0.143,0.025,0.158-0.041,0.138-0.152
							c-0.21-1.202,0.359-2.389,1.435-2.993c1.097-0.634,2.521-0.431,3.403,0.421c0.102,0.086,0.2,0.112,0.318,0.076
							c0.543-0.116,1.05-0.319,1.527-0.588c0.041-0.01,0.071-0.036,0.123-0.076c-0.205,0.675-0.615,1.172-1.22,1.578
							c0.558-0.056,1.061-0.213,1.558-0.406c0.01,0.071-0.042,0.112-0.072,0.167c-0.339,0.457-0.733,0.867-1.199,1.212
							c-0.087,0.071-0.108,0.122-0.108,0.234c0.036,2.095-0.641,3.961-1.994,5.584c-1.271,1.481-2.896,2.369-4.827,2.683
							c-2.05,0.315-3.977-0.03-5.75-1.11C460.937,798.716,460.911,798.701,460.895,798.701z"/>
					</g>
				</g>
			</g>
			<g>
				<path style="fill:#FFFFFF;" d="M526.218,794.27c0,6.011-4.92,10.885-10.998,10.885c-6.067,0-10.992-4.875-10.992-10.885
					s4.925-10.891,10.992-10.891C521.299,783.379,526.218,788.259,526.218,794.27z"/>
				<g>
					<g>
						<path style="fill-rule:evenodd;clip-rule:evenodd;fill:#00425A;" d="M519.597,788.396c-2.911,0-5.832,0-8.743,0
							c-1.041,0-1.578,0.538-1.578,1.573c0,1.425,0,2.856,0,4.301c0,1.43,0,2.886,0,4.332c0,0.994,0.554,1.542,1.527,1.542
							c2.942,0,5.863,0,8.794,0c1.015,0,1.573-0.547,1.573-1.557c0-2.886,0-5.762,0-8.654
							C521.17,788.933,520.612,788.396,519.597,788.396z M518.634,789.72c1.179,0,1.179,0,1.179,1.167c0,1.141,0,1.141-1.158,1.141
							c-1.168,0-1.168,0-1.168-1.156C517.486,789.72,517.486,789.72,518.634,789.72z M515.231,791.987
							c1.24,0,2.306,1.06,2.285,2.283c-0.01,1.253-1.066,2.293-2.326,2.272c-1.251-0.031-2.306-1.07-2.276-2.303
							C512.945,793.007,513.991,791.987,515.231,791.987z M519.812,798.105c-0.01,0.548-0.154,0.705-0.707,0.705
							c-1.297,0-2.593,0-3.89,0c-1.286,0-2.582,0-3.879,0c-0.543,0-0.697-0.157-0.697-0.705c0-1.41,0.005-2.851-0.02-4.281
							c0-0.406,0.113-0.498,0.492-0.482c0.543,0.035,0.554,0.015,0.492,0.538c-0.21,1.821,1.061,3.581,2.87,3.931
							c1.865,0.355,3.731-0.75,4.243-2.521c0.154-0.553,0.2-1.141,0.082-1.689c-0.041-0.203,0.01-0.244,0.195-0.244
							c0.82-0.061,0.82-0.076,0.82,0.766C519.812,795.437,519.812,796.776,519.812,798.105z"/>
					</g>
				</g>
			</g>
		</g>
		
			<text transform="matrix(1.0103 0 0 1 399.3287 764.0304)" style="fill:#FFFFFF; font-family:'Roboto-Light'; font-size:8.3185px;">YOUR COMPANY NAME</text>
	</g>
	
		<text transform="matrix(1.0103 0 0 1 45.8287 61.8326)" style="fill:#FFFFFF; font-family:'Roboto-Medium'; font-size:16.6371px; letter-spacing:2.969;">PLACE MORE TEXT HERE</text>
</g>
</svg>
